G04*
G04 #@! TF.GenerationSoftware,Altium Limited,Altium Designer,20.2.6 (244)*
G04*
G04 Layer_Color=128*
%FSLAX24Y24*%
%MOIN*%
G70*
G04*
G04 #@! TF.SameCoordinates,49DCD013-E9FA-4731-AA8E-B93FF918964A*
G04*
G04*
G04 #@! TF.FilePolarity,Positive*
G04*
G01*
G75*
%ADD15C,0.0100*%
%ADD21R,0.0256X0.0217*%
%ADD22C,0.0200*%
%ADD23R,0.0256X0.0354*%
%ADD32R,0.0354X0.0256*%
%ADD40R,0.0217X0.0256*%
G04:AMPARAMS|DCode=67|XSize=11.8mil|YSize=65mil|CornerRadius=1.9mil|HoleSize=0mil|Usage=FLASHONLY|Rotation=270.000|XOffset=0mil|YOffset=0mil|HoleType=Round|Shape=RoundedRectangle|*
%AMROUNDEDRECTD67*
21,1,0.0118,0.0611,0,0,270.0*
21,1,0.0079,0.0650,0,0,270.0*
1,1,0.0039,-0.0305,-0.0040*
1,1,0.0039,-0.0305,0.0040*
1,1,0.0039,0.0305,0.0040*
1,1,0.0039,0.0305,-0.0040*
%
%ADD67ROUNDEDRECTD67*%
G04:AMPARAMS|DCode=68|XSize=11.8mil|YSize=65mil|CornerRadius=1.9mil|HoleSize=0mil|Usage=FLASHONLY|Rotation=180.000|XOffset=0mil|YOffset=0mil|HoleType=Round|Shape=RoundedRectangle|*
%AMROUNDEDRECTD68*
21,1,0.0118,0.0611,0,0,180.0*
21,1,0.0079,0.0650,0,0,180.0*
1,1,0.0039,-0.0040,0.0305*
1,1,0.0039,0.0040,0.0305*
1,1,0.0039,0.0040,-0.0305*
1,1,0.0039,-0.0040,-0.0305*
%
%ADD68ROUNDEDRECTD68*%
%ADD69R,0.0300X0.0700*%
%ADD70O,0.0709X0.0118*%
%ADD71O,0.0118X0.0709*%
%ADD72R,0.0610X0.0748*%
%ADD73R,0.0906X0.0748*%
%ADD74R,0.0157X0.0551*%
D15*
X-7400Y-10498D02*
Y-11097D01*
X-7101D01*
X-7001Y-10997D01*
Y-10898D01*
X-7101Y-10798D01*
X-7400D01*
X-7101D01*
X-7001Y-10698D01*
Y-10598D01*
X-7101Y-10498D01*
X-7400D01*
X-6701Y-11097D02*
X-6501D01*
X-6401Y-10997D01*
Y-10798D01*
X-6501Y-10698D01*
X-6701D01*
X-6801Y-10798D01*
Y-10997D01*
X-6701Y-11097D01*
X-6101Y-10598D02*
Y-10698D01*
X-6201D01*
X-6001D01*
X-6101D01*
Y-10997D01*
X-6001Y-11097D01*
X-5101D02*
Y-10498D01*
X-4801D01*
X-4701Y-10598D01*
Y-10798D01*
X-4801Y-10898D01*
X-5101D01*
X-4401Y-10698D02*
X-4202D01*
X-4102Y-10798D01*
Y-11097D01*
X-4401D01*
X-4501Y-10997D01*
X-4401Y-10898D01*
X-4102D01*
X-3902Y-11097D02*
X-3602D01*
X-3502Y-10997D01*
X-3602Y-10898D01*
X-3802D01*
X-3902Y-10798D01*
X-3802Y-10698D01*
X-3502D01*
X-3202Y-10598D02*
Y-10698D01*
X-3302D01*
X-3102D01*
X-3202D01*
Y-10997D01*
X-3102Y-11097D01*
X-2502D02*
X-2702D01*
X-2802Y-10997D01*
Y-10798D01*
X-2702Y-10698D01*
X-2502D01*
X-2402Y-10798D01*
Y-10898D01*
X-2802D01*
D21*
X1102Y-10039D02*
D03*
Y-10433D02*
D03*
X11770Y-16123D02*
D03*
Y-16517D02*
D03*
D22*
X9100Y-9200D02*
D03*
X9029Y-6940D02*
D03*
Y-6550D02*
D03*
D23*
X9291Y-12165D02*
D03*
X9803D02*
D03*
X3342Y-13460D02*
D03*
X2830D02*
D03*
X512Y-11929D02*
D03*
X1024D02*
D03*
X8543Y-16181D02*
D03*
X8031D02*
D03*
X5827Y-4134D02*
D03*
X6339D02*
D03*
D32*
X12677Y-15472D02*
D03*
Y-15984D02*
D03*
Y-14606D02*
D03*
Y-15118D02*
D03*
D40*
X12547Y-6350D02*
D03*
X12153D02*
D03*
X10857Y-8347D02*
D03*
X10463D02*
D03*
X12547Y-7850D02*
D03*
X12153D02*
D03*
X6378Y-13898D02*
D03*
X6772D02*
D03*
X12547Y-6850D02*
D03*
X12153D02*
D03*
X12153Y-7350D02*
D03*
X12547D02*
D03*
X12547Y-9850D02*
D03*
X12153D02*
D03*
X12537Y-10347D02*
D03*
X12143D02*
D03*
X12547Y-8399D02*
D03*
X12153D02*
D03*
X12547Y-8915D02*
D03*
X12153D02*
D03*
X12547Y-9360D02*
D03*
X12153D02*
D03*
X10857Y-8843D02*
D03*
X10463D02*
D03*
X12153Y-10804D02*
D03*
X12547D02*
D03*
X10867Y-9340D02*
D03*
X10473D02*
D03*
X10857Y-7850D02*
D03*
X10463D02*
D03*
D67*
X8415Y-13602D02*
D03*
Y-13799D02*
D03*
Y-13996D02*
D03*
Y-14193D02*
D03*
Y-14390D02*
D03*
Y-14587D02*
D03*
Y-14783D02*
D03*
Y-14980D02*
D03*
Y-15177D02*
D03*
Y-15374D02*
D03*
Y-15571D02*
D03*
Y-15768D02*
D03*
X11821D02*
D03*
Y-15571D02*
D03*
Y-15374D02*
D03*
Y-15177D02*
D03*
Y-14980D02*
D03*
Y-14783D02*
D03*
Y-14587D02*
D03*
Y-14390D02*
D03*
Y-14193D02*
D03*
Y-13996D02*
D03*
Y-13799D02*
D03*
Y-13602D02*
D03*
D68*
X9035Y-16388D02*
D03*
X9232D02*
D03*
X9429D02*
D03*
X9626D02*
D03*
X9823D02*
D03*
X10020D02*
D03*
X10217D02*
D03*
X10413D02*
D03*
X10610D02*
D03*
X10807D02*
D03*
X11004D02*
D03*
X11201D02*
D03*
Y-12982D02*
D03*
X11004D02*
D03*
X10807D02*
D03*
X10610D02*
D03*
X10413D02*
D03*
X10217D02*
D03*
X10020D02*
D03*
X9823D02*
D03*
X9626D02*
D03*
X9429D02*
D03*
X9232D02*
D03*
X9035D02*
D03*
D69*
X1238Y-2824D02*
D03*
X1738D02*
D03*
X2238D02*
D03*
X2738D02*
D03*
X3238D02*
D03*
X3738D02*
D03*
X4238D02*
D03*
X4738D02*
D03*
X5238D02*
D03*
X5738D02*
D03*
X6238D02*
D03*
X6738D02*
D03*
X7238D02*
D03*
X7738D02*
D03*
X9738D02*
D03*
X9238D02*
D03*
X8738D02*
D03*
X8238D02*
D03*
D70*
X2421Y-7244D02*
D03*
Y-7441D02*
D03*
Y-7638D02*
D03*
Y-7835D02*
D03*
Y-8031D02*
D03*
Y-8228D02*
D03*
Y-8425D02*
D03*
Y-8622D02*
D03*
Y-8819D02*
D03*
Y-9016D02*
D03*
Y-9213D02*
D03*
Y-9409D02*
D03*
Y-9606D02*
D03*
Y-9803D02*
D03*
Y-10000D02*
D03*
Y-10197D02*
D03*
Y-10394D02*
D03*
Y-10591D02*
D03*
Y-10787D02*
D03*
Y-10984D02*
D03*
Y-11181D02*
D03*
Y-11378D02*
D03*
Y-11575D02*
D03*
Y-11772D02*
D03*
Y-11968D02*
D03*
X8366D02*
D03*
Y-11772D02*
D03*
Y-11575D02*
D03*
Y-11378D02*
D03*
Y-11181D02*
D03*
Y-10197D02*
D03*
Y-10000D02*
D03*
Y-9803D02*
D03*
Y-9606D02*
D03*
Y-9409D02*
D03*
Y-9213D02*
D03*
Y-9016D02*
D03*
Y-8819D02*
D03*
Y-8622D02*
D03*
Y-8425D02*
D03*
Y-8228D02*
D03*
Y-8031D02*
D03*
Y-7835D02*
D03*
Y-7638D02*
D03*
Y-7441D02*
D03*
Y-7244D02*
D03*
Y-10394D02*
D03*
Y-10787D02*
D03*
Y-10984D02*
D03*
Y-10591D02*
D03*
D71*
X3031Y-12579D02*
D03*
X3228D02*
D03*
X3425D02*
D03*
X3622D02*
D03*
X3819D02*
D03*
X4016D02*
D03*
X4213D02*
D03*
X4409D02*
D03*
X4606D02*
D03*
X4803D02*
D03*
X5000D02*
D03*
X5197D02*
D03*
X5394D02*
D03*
X5591D02*
D03*
X5787D02*
D03*
X5984D02*
D03*
X6181D02*
D03*
X6378D02*
D03*
X6575D02*
D03*
X6772D02*
D03*
X6969D02*
D03*
X7165D02*
D03*
X7362D02*
D03*
X7559D02*
D03*
X7756D02*
D03*
Y-6634D02*
D03*
X7559D02*
D03*
X7362D02*
D03*
X7165D02*
D03*
X6969D02*
D03*
X6772D02*
D03*
X6575D02*
D03*
X6378D02*
D03*
X6181D02*
D03*
X5984D02*
D03*
X5787D02*
D03*
X5591D02*
D03*
X5394D02*
D03*
X5197D02*
D03*
X5000D02*
D03*
X4803D02*
D03*
X4606D02*
D03*
X4409D02*
D03*
X4213D02*
D03*
X4016D02*
D03*
X3819D02*
D03*
X3622D02*
D03*
X3425D02*
D03*
X3228D02*
D03*
X3031D02*
D03*
D72*
X5463Y-16004D02*
D03*
X6270D02*
D03*
D73*
X4488D02*
D03*
X7244D02*
D03*
D74*
X5354Y-14882D02*
D03*
X5610D02*
D03*
X5866D02*
D03*
X6122D02*
D03*
X6378D02*
D03*
M02*
