G04*
G04 #@! TF.GenerationSoftware,Altium Limited,Altium Designer,20.2.6 (244)*
G04*
G04 Layer_Color=8388736*
%FSLAX24Y24*%
%MOIN*%
G70*
G04*
G04 #@! TF.SameCoordinates,49DCD013-E9FA-4731-AA8E-B93FF918964A*
G04*
G04*
G04 #@! TF.FilePolarity,Positive*
G04*
G01*
G75*
%ADD13C,0.0050*%
%ADD15C,0.0100*%
D13*
X12992Y-16148D02*
Y0D01*
X12211Y-16929D02*
X12992Y-16148D01*
X0Y0D02*
X12992D01*
X779Y-16929D02*
X12211D01*
X0Y-16150D02*
X779Y-16929D01*
X0Y-16150D02*
Y0D01*
D15*
X-6451Y-11518D02*
X-6651D01*
X-6751Y-11618D01*
Y-12018D01*
X-6651Y-12118D01*
X-6451D01*
X-6351Y-12018D01*
Y-11618D01*
X-6451Y-11518D01*
X-6151Y-11718D02*
Y-12018D01*
X-6051Y-12118D01*
X-5751D01*
Y-11718D01*
X-5451Y-11618D02*
Y-11718D01*
X-5551D01*
X-5351D01*
X-5451D01*
Y-12018D01*
X-5351Y-12118D01*
X-5051D02*
X-4851D01*
X-4951D01*
Y-11518D01*
X-5051D01*
X-4551Y-12118D02*
X-4351D01*
X-4451D01*
Y-11718D01*
X-4551D01*
X-4052Y-12118D02*
Y-11718D01*
X-3752D01*
X-3652Y-11818D01*
Y-12118D01*
X-3152D02*
X-3352D01*
X-3452Y-12018D01*
Y-11818D01*
X-3352Y-11718D01*
X-3152D01*
X-3052Y-11818D01*
Y-11918D01*
X-3452D01*
M02*
