G04*
G04 #@! TF.GenerationSoftware,Altium Limited,Altium Designer,20.2.6 (244)*
G04*
G04 Layer_Color=8388736*
%FSLAX24Y24*%
%MOIN*%
G70*
G04*
G04 #@! TF.SameCoordinates,49DCD013-E9FA-4731-AA8E-B93FF918964A*
G04*
G04*
G04 #@! TF.FilePolarity,Negative*
G04*
G01*
G75*
%ADD15C,0.0100*%
%ADD22C,0.0200*%
%ADD31R,0.0236X0.0197*%
%ADD33O,0.0945X0.0315*%
%ADD34R,0.0945X0.0315*%
%ADD35R,0.0689X0.0571*%
%ADD36R,0.0295X0.0118*%
G04:AMPARAMS|DCode=37|XSize=11.8mil|YSize=29.5mil|CornerRadius=5.9mil|HoleSize=0mil|Usage=FLASHONLY|Rotation=270.000|XOffset=0mil|YOffset=0mil|HoleType=Round|Shape=RoundedRectangle|*
%AMROUNDEDRECTD37*
21,1,0.0118,0.0177,0,0,270.0*
21,1,0.0000,0.0295,0,0,270.0*
1,1,0.0118,-0.0089,0.0000*
1,1,0.0118,-0.0089,0.0000*
1,1,0.0118,0.0089,0.0000*
1,1,0.0118,0.0089,0.0000*
%
%ADD37ROUNDEDRECTD37*%
%ADD41R,0.0296X0.0257*%
%ADD42R,0.0296X0.0394*%
%ADD43O,0.0197X0.0591*%
%ADD44R,0.0591X0.0453*%
%ADD45R,0.0453X0.0493*%
%ADD46R,0.0434X0.0394*%
%ADD47O,0.0178X0.0827*%
%ADD48R,0.0591X0.0512*%
%ADD49R,0.0339X0.0985*%
%ADD50R,0.0394X0.0296*%
%ADD51R,0.0792X0.0339*%
%ADD52R,0.0308X0.0260*%
%ADD53R,0.0257X0.0296*%
%ADD54C,0.0480*%
%ADD55C,0.0590*%
%ADD56C,0.0631*%
%ADD57C,0.1090*%
D15*
X-7700Y-3152D02*
X-7301D01*
X-7500D01*
Y-3752D01*
X-7001D02*
X-6801D01*
X-6701Y-3652D01*
Y-3452D01*
X-6801Y-3352D01*
X-7001D01*
X-7101Y-3452D01*
Y-3652D01*
X-7001Y-3752D01*
X-6501Y-3952D02*
Y-3352D01*
X-6201D01*
X-6101Y-3452D01*
Y-3652D01*
X-6201Y-3752D01*
X-6501D01*
X-4901Y-3252D02*
X-5001Y-3152D01*
X-5201D01*
X-5301Y-3252D01*
Y-3352D01*
X-5201Y-3452D01*
X-5001D01*
X-4901Y-3552D01*
Y-3652D01*
X-5001Y-3752D01*
X-5201D01*
X-5301Y-3652D01*
X-4601Y-3752D02*
X-4401D01*
X-4301Y-3652D01*
Y-3452D01*
X-4401Y-3352D01*
X-4601D01*
X-4701Y-3452D01*
Y-3652D01*
X-4601Y-3752D01*
X-4102D02*
X-3902D01*
X-4002D01*
Y-3152D01*
X-4102D01*
X-3202D02*
Y-3752D01*
X-3502D01*
X-3602Y-3652D01*
Y-3452D01*
X-3502Y-3352D01*
X-3202D01*
X-2702Y-3752D02*
X-2902D01*
X-3002Y-3652D01*
Y-3452D01*
X-2902Y-3352D01*
X-2702D01*
X-2602Y-3452D01*
Y-3552D01*
X-3002D01*
X-2402Y-3352D02*
Y-3752D01*
Y-3552D01*
X-2302Y-3452D01*
X-2202Y-3352D01*
X-2102D01*
D22*
X9740Y-5530D02*
D03*
X7930Y-5239D02*
D03*
X8170Y-5830D02*
D03*
X5370Y-2800D02*
D03*
X4710Y-2450D02*
D03*
X4690Y-10630D02*
D03*
X2730Y-2070D02*
D03*
X4690Y-11780D02*
D03*
X2380Y-2240D02*
D03*
X2030Y-2070D02*
D03*
X1680Y-2240D02*
D03*
X7616Y-6050D02*
D03*
X9230Y-5810D02*
D03*
X7950Y-4530D02*
D03*
X10970Y-5830D02*
D03*
X12030Y-5820D02*
D03*
D31*
X2606Y-16594D02*
D03*
Y-16240D02*
D03*
X1556Y-16594D02*
D03*
Y-16240D02*
D03*
X1031Y-16594D02*
D03*
Y-16240D02*
D03*
X2081Y-16594D02*
D03*
Y-16240D02*
D03*
D33*
X7115Y-5739D02*
D03*
Y-5239D02*
D03*
Y-4739D02*
D03*
Y-4239D02*
D03*
X5146Y-5739D02*
D03*
Y-5239D02*
D03*
Y-4739D02*
D03*
D34*
Y-4239D02*
D03*
D35*
X6909Y-9429D02*
D03*
D36*
X7480Y-9134D02*
D03*
Y-9331D02*
D03*
Y-9528D02*
D03*
Y-9724D02*
D03*
X6339D02*
D03*
Y-9528D02*
D03*
Y-9331D02*
D03*
D37*
Y-9134D02*
D03*
D41*
X11330Y-1447D02*
D03*
Y-1053D02*
D03*
X8320Y-5027D02*
D03*
Y-4633D02*
D03*
X4000Y-11713D02*
D03*
Y-12107D02*
D03*
X10748Y-15118D02*
D03*
Y-14724D02*
D03*
X1556Y-15866D02*
D03*
Y-15472D02*
D03*
X1031Y-15866D02*
D03*
Y-15472D02*
D03*
X5079Y-8228D02*
D03*
Y-7835D02*
D03*
X3268Y-7874D02*
D03*
Y-8268D02*
D03*
X8858Y-13425D02*
D03*
Y-13819D02*
D03*
X8268Y-13425D02*
D03*
Y-13819D02*
D03*
X9803Y-16063D02*
D03*
Y-16457D02*
D03*
X9213Y-16063D02*
D03*
Y-16457D02*
D03*
X10394Y-16063D02*
D03*
Y-16457D02*
D03*
X12190Y-4923D02*
D03*
Y-5317D02*
D03*
X12560Y-4913D02*
D03*
Y-5307D02*
D03*
X2081Y-15866D02*
D03*
Y-15472D02*
D03*
X2606Y-15866D02*
D03*
Y-15472D02*
D03*
X3937Y-5591D02*
D03*
Y-5197D02*
D03*
X7420Y-10096D02*
D03*
Y-10490D02*
D03*
X7020Y-10497D02*
D03*
Y-10103D02*
D03*
X4331Y-4803D02*
D03*
Y-5197D02*
D03*
X5950Y-10548D02*
D03*
Y-10155D02*
D03*
X8820Y-5027D02*
D03*
Y-4633D02*
D03*
X9260Y-4633D02*
D03*
Y-5027D02*
D03*
X9680Y-5027D02*
D03*
Y-4633D02*
D03*
X11280Y-5827D02*
D03*
Y-5433D02*
D03*
X11700Y-5827D02*
D03*
Y-5433D02*
D03*
X8610Y-2223D02*
D03*
Y-2617D02*
D03*
X8170Y-2223D02*
D03*
Y-2617D02*
D03*
D42*
X12232Y-1130D02*
D03*
X11720D02*
D03*
X1122Y-3583D02*
D03*
X610D02*
D03*
X7087Y-7559D02*
D03*
X7598D02*
D03*
X8740Y-14921D02*
D03*
X9252D02*
D03*
X11417Y-14331D02*
D03*
X11929D02*
D03*
X9291Y-12165D02*
D03*
X9803D02*
D03*
X6535Y-6614D02*
D03*
X7047D02*
D03*
X610Y-4488D02*
D03*
X1122D02*
D03*
D43*
X11488Y-2020D02*
D03*
X12512D02*
D03*
X12256D02*
D03*
X12000D02*
D03*
X11744D02*
D03*
X11232D02*
D03*
X10976D02*
D03*
X10720D02*
D03*
X12512Y-4343D02*
D03*
X12256D02*
D03*
X12000D02*
D03*
X11744D02*
D03*
X11488D02*
D03*
X11232D02*
D03*
X10976D02*
D03*
X10720D02*
D03*
D44*
X551Y-2185D02*
D03*
Y-2933D02*
D03*
X472Y-5098D02*
D03*
Y-5846D02*
D03*
D45*
X1088Y-9144D02*
D03*
X502Y-9144D02*
D03*
X1088Y-10463D02*
D03*
X502D02*
D03*
X1088Y-11270D02*
D03*
X502Y-11270D02*
D03*
X1088Y-12589D02*
D03*
X502D02*
D03*
D46*
X4547Y-7776D02*
D03*
X3819D02*
D03*
Y-8386D02*
D03*
X4547D02*
D03*
D47*
X1555Y-5236D02*
D03*
X1811D02*
D03*
X2067D02*
D03*
X2323D02*
D03*
X2579D02*
D03*
X2835D02*
D03*
X3091D02*
D03*
X1555Y-2953D02*
D03*
X1811D02*
D03*
X2067D02*
D03*
X2323D02*
D03*
X2579D02*
D03*
X2835D02*
D03*
X3091D02*
D03*
D48*
X5630Y-12638D02*
D03*
X6575D02*
D03*
Y-13386D02*
D03*
X5630D02*
D03*
D49*
X7299Y-14665D02*
D03*
Y-16201D02*
D03*
X6799Y-14665D02*
D03*
Y-16201D02*
D03*
X6299Y-14665D02*
D03*
Y-16201D02*
D03*
X5799Y-14665D02*
D03*
Y-16201D02*
D03*
X5299D02*
D03*
Y-14665D02*
D03*
D50*
X8031Y-8465D02*
D03*
Y-7953D02*
D03*
X3730Y-3528D02*
D03*
Y-4040D02*
D03*
X6614Y-7953D02*
D03*
Y-8465D02*
D03*
X7087Y-7953D02*
D03*
Y-8465D02*
D03*
X10906Y-16024D02*
D03*
Y-16535D02*
D03*
X2300Y-6732D02*
D03*
Y-6220D02*
D03*
X5118Y-6378D02*
D03*
Y-6890D02*
D03*
X7598Y-7953D02*
D03*
Y-8465D02*
D03*
X3031Y-11890D02*
D03*
Y-11378D02*
D03*
X5630Y-7953D02*
D03*
Y-8465D02*
D03*
X6102Y-7953D02*
D03*
Y-8465D02*
D03*
X4016Y-6398D02*
D03*
Y-6909D02*
D03*
D51*
X9050Y-7350D02*
D03*
Y-6850D02*
D03*
Y-10350D02*
D03*
Y-9850D02*
D03*
X12450Y-7350D02*
D03*
Y-7850D02*
D03*
Y-6850D02*
D03*
Y-9350D02*
D03*
Y-10350D02*
D03*
Y-9850D02*
D03*
X9050Y-9350D02*
D03*
Y-7850D02*
D03*
D52*
X3730Y-2170D02*
D03*
Y-3130D02*
D03*
D53*
X10276Y-14961D02*
D03*
X9882D02*
D03*
X6614Y-7559D02*
D03*
X6220D02*
D03*
X5000Y-13386D02*
D03*
X4606D02*
D03*
X8858Y-14409D02*
D03*
X9252D02*
D03*
X11417Y-15630D02*
D03*
X11811D02*
D03*
X11417Y-16260D02*
D03*
X11811D02*
D03*
X11417Y-15000D02*
D03*
X11811D02*
D03*
X4685Y-10984D02*
D03*
X5079D02*
D03*
X4685Y-11417D02*
D03*
X5079D02*
D03*
X5039Y-9055D02*
D03*
X4646D02*
D03*
X5039Y-9488D02*
D03*
X4646D02*
D03*
X9882Y-15512D02*
D03*
X10276D02*
D03*
D54*
X7738Y-1493D02*
D03*
X1238D02*
D03*
X1738D02*
D03*
X2238D02*
D03*
X2738D02*
D03*
X3238D02*
D03*
X3738D02*
D03*
X4238D02*
D03*
X4738D02*
D03*
X5238D02*
D03*
X5738D02*
D03*
X6238D02*
D03*
X6738D02*
D03*
X7238D02*
D03*
X9238D02*
D03*
X8738D02*
D03*
X8238D02*
D03*
X9738D02*
D03*
D55*
X1457Y-7677D02*
D03*
X457D02*
D03*
X1457Y-6677D02*
D03*
X457D02*
D03*
D56*
X3543Y-14291D02*
D03*
X2543D02*
D03*
D57*
X1181Y-14173D02*
D03*
M02*
