G04*
G04 #@! TF.GenerationSoftware,Altium Limited,Altium Designer,20.2.6 (244)*
G04*
G04 Layer_Color=16711935*
%FSLAX24Y24*%
%MOIN*%
G70*
G04*
G04 #@! TF.SameCoordinates,49DCD013-E9FA-4731-AA8E-B93FF918964A*
G04*
G04*
G04 #@! TF.FilePolarity,Negative*
G04*
G01*
G75*
%ADD15C,0.0100*%
%ADD22C,0.0200*%
%ADD41R,0.0296X0.0257*%
%ADD42R,0.0296X0.0394*%
%ADD50R,0.0394X0.0296*%
%ADD53R,0.0257X0.0296*%
%ADD54C,0.0480*%
%ADD55C,0.0590*%
%ADD56C,0.0631*%
%ADD57C,0.1090*%
G04:AMPARAMS|DCode=75|XSize=15.8mil|YSize=69mil|CornerRadius=3.9mil|HoleSize=0mil|Usage=FLASHONLY|Rotation=270.000|XOffset=0mil|YOffset=0mil|HoleType=Round|Shape=RoundedRectangle|*
%AMROUNDEDRECTD75*
21,1,0.0158,0.0611,0,0,270.0*
21,1,0.0079,0.0690,0,0,270.0*
1,1,0.0079,-0.0305,-0.0040*
1,1,0.0079,-0.0305,0.0040*
1,1,0.0079,0.0305,0.0040*
1,1,0.0079,0.0305,-0.0040*
%
%ADD75ROUNDEDRECTD75*%
G04:AMPARAMS|DCode=76|XSize=15.8mil|YSize=69mil|CornerRadius=3.9mil|HoleSize=0mil|Usage=FLASHONLY|Rotation=180.000|XOffset=0mil|YOffset=0mil|HoleType=Round|Shape=RoundedRectangle|*
%AMROUNDEDRECTD76*
21,1,0.0158,0.0611,0,0,180.0*
21,1,0.0079,0.0690,0,0,180.0*
1,1,0.0079,-0.0040,0.0305*
1,1,0.0079,0.0040,0.0305*
1,1,0.0079,0.0040,-0.0305*
1,1,0.0079,-0.0040,-0.0305*
%
%ADD76ROUNDEDRECTD76*%
%ADD77R,0.0340X0.0740*%
%ADD78O,0.0749X0.0158*%
%ADD79O,0.0158X0.0749*%
%ADD80R,0.0650X0.0788*%
%ADD81R,0.0946X0.0788*%
%ADD82R,0.0197X0.0591*%
D15*
X-7650Y-8456D02*
Y-9056D01*
X-7350D01*
X-7251Y-8956D01*
Y-8856D01*
X-7350Y-8756D01*
X-7650D01*
X-7350D01*
X-7251Y-8656D01*
Y-8556D01*
X-7350Y-8456D01*
X-7650D01*
X-6951Y-9056D02*
X-6751D01*
X-6651Y-8956D01*
Y-8756D01*
X-6751Y-8656D01*
X-6951D01*
X-7051Y-8756D01*
Y-8956D01*
X-6951Y-9056D01*
X-6351Y-8556D02*
Y-8656D01*
X-6451D01*
X-6251D01*
X-6351D01*
Y-8956D01*
X-6251Y-9056D01*
X-4951Y-8556D02*
X-5051Y-8456D01*
X-5251D01*
X-5351Y-8556D01*
Y-8656D01*
X-5251Y-8756D01*
X-5051D01*
X-4951Y-8856D01*
Y-8956D01*
X-5051Y-9056D01*
X-5251D01*
X-5351Y-8956D01*
X-4651Y-9056D02*
X-4451D01*
X-4351Y-8956D01*
Y-8756D01*
X-4451Y-8656D01*
X-4651D01*
X-4751Y-8756D01*
Y-8956D01*
X-4651Y-9056D01*
X-4152D02*
X-3952D01*
X-4052D01*
Y-8456D01*
X-4152D01*
X-3252D02*
Y-9056D01*
X-3552D01*
X-3652Y-8956D01*
Y-8756D01*
X-3552Y-8656D01*
X-3252D01*
X-2752Y-9056D02*
X-2952D01*
X-3052Y-8956D01*
Y-8756D01*
X-2952Y-8656D01*
X-2752D01*
X-2652Y-8756D01*
Y-8856D01*
X-3052D01*
X-2452Y-8656D02*
Y-9056D01*
Y-8856D01*
X-2352Y-8756D01*
X-2252Y-8656D01*
X-2152D01*
D22*
X9100Y-9200D02*
D03*
X9029Y-6940D02*
D03*
Y-6550D02*
D03*
D41*
X1102Y-10039D02*
D03*
Y-10433D02*
D03*
X11770Y-16123D02*
D03*
Y-16517D02*
D03*
D42*
X9291Y-12165D02*
D03*
X9803D02*
D03*
X3342Y-13460D02*
D03*
X2830D02*
D03*
X512Y-11929D02*
D03*
X1024D02*
D03*
X8543Y-16181D02*
D03*
X8031D02*
D03*
X5827Y-4134D02*
D03*
X6339D02*
D03*
D50*
X12677Y-15472D02*
D03*
Y-15984D02*
D03*
Y-14606D02*
D03*
Y-15118D02*
D03*
D53*
X12547Y-6350D02*
D03*
X12153D02*
D03*
X10857Y-8347D02*
D03*
X10463D02*
D03*
X12547Y-7850D02*
D03*
X12153D02*
D03*
X6378Y-13898D02*
D03*
X6772D02*
D03*
X12547Y-6850D02*
D03*
X12153D02*
D03*
X12153Y-7350D02*
D03*
X12547D02*
D03*
X12547Y-9850D02*
D03*
X12153D02*
D03*
X12537Y-10347D02*
D03*
X12143D02*
D03*
X12547Y-8399D02*
D03*
X12153D02*
D03*
X12547Y-8915D02*
D03*
X12153D02*
D03*
X12547Y-9360D02*
D03*
X12153D02*
D03*
X10857Y-8843D02*
D03*
X10463D02*
D03*
X12153Y-10804D02*
D03*
X12547D02*
D03*
X10867Y-9340D02*
D03*
X10473D02*
D03*
X10857Y-7850D02*
D03*
X10463D02*
D03*
D54*
X7738Y-1493D02*
D03*
X1238D02*
D03*
X1738D02*
D03*
X2238D02*
D03*
X2738D02*
D03*
X3238D02*
D03*
X3738D02*
D03*
X4238D02*
D03*
X4738D02*
D03*
X5238D02*
D03*
X5738D02*
D03*
X6238D02*
D03*
X6738D02*
D03*
X7238D02*
D03*
X9238D02*
D03*
X8738D02*
D03*
X8238D02*
D03*
X9738D02*
D03*
D55*
X1457Y-7677D02*
D03*
X457D02*
D03*
X1457Y-6677D02*
D03*
X457D02*
D03*
D56*
X3543Y-14291D02*
D03*
X2543D02*
D03*
D57*
X1181Y-14173D02*
D03*
D75*
X8415Y-13602D02*
D03*
Y-13799D02*
D03*
Y-13996D02*
D03*
Y-14193D02*
D03*
Y-14390D02*
D03*
Y-14587D02*
D03*
Y-14783D02*
D03*
Y-14980D02*
D03*
Y-15177D02*
D03*
Y-15374D02*
D03*
Y-15571D02*
D03*
Y-15768D02*
D03*
X11821D02*
D03*
Y-15571D02*
D03*
Y-15374D02*
D03*
Y-15177D02*
D03*
Y-14980D02*
D03*
Y-14783D02*
D03*
Y-14587D02*
D03*
Y-14390D02*
D03*
Y-14193D02*
D03*
Y-13996D02*
D03*
Y-13799D02*
D03*
Y-13602D02*
D03*
D76*
X9035Y-16388D02*
D03*
X9232D02*
D03*
X9429D02*
D03*
X9626D02*
D03*
X9823D02*
D03*
X10020D02*
D03*
X10217D02*
D03*
X10413D02*
D03*
X10610D02*
D03*
X10807D02*
D03*
X11004D02*
D03*
X11201D02*
D03*
Y-12982D02*
D03*
X11004D02*
D03*
X10807D02*
D03*
X10610D02*
D03*
X10413D02*
D03*
X10217D02*
D03*
X10020D02*
D03*
X9823D02*
D03*
X9626D02*
D03*
X9429D02*
D03*
X9232D02*
D03*
X9035D02*
D03*
D77*
X1238Y-2824D02*
D03*
X1738D02*
D03*
X2238D02*
D03*
X2738D02*
D03*
X3238D02*
D03*
X3738D02*
D03*
X4238D02*
D03*
X4738D02*
D03*
X5238D02*
D03*
X5738D02*
D03*
X6238D02*
D03*
X6738D02*
D03*
X7238D02*
D03*
X7738D02*
D03*
X9738D02*
D03*
X9238D02*
D03*
X8738D02*
D03*
X8238D02*
D03*
D78*
X2421Y-7244D02*
D03*
Y-7441D02*
D03*
Y-7638D02*
D03*
Y-7835D02*
D03*
Y-8031D02*
D03*
Y-8228D02*
D03*
Y-8425D02*
D03*
Y-8622D02*
D03*
Y-8819D02*
D03*
Y-9016D02*
D03*
Y-9213D02*
D03*
Y-9409D02*
D03*
Y-9606D02*
D03*
Y-9803D02*
D03*
Y-10000D02*
D03*
Y-10197D02*
D03*
Y-10394D02*
D03*
Y-10591D02*
D03*
Y-10787D02*
D03*
Y-10984D02*
D03*
Y-11181D02*
D03*
Y-11378D02*
D03*
Y-11575D02*
D03*
Y-11772D02*
D03*
Y-11968D02*
D03*
X8366D02*
D03*
Y-11772D02*
D03*
Y-11575D02*
D03*
Y-11378D02*
D03*
Y-11181D02*
D03*
Y-10197D02*
D03*
Y-10000D02*
D03*
Y-9803D02*
D03*
Y-9606D02*
D03*
Y-9409D02*
D03*
Y-9213D02*
D03*
Y-9016D02*
D03*
Y-8819D02*
D03*
Y-8622D02*
D03*
Y-8425D02*
D03*
Y-8228D02*
D03*
Y-8031D02*
D03*
Y-7835D02*
D03*
Y-7638D02*
D03*
Y-7441D02*
D03*
Y-7244D02*
D03*
Y-10394D02*
D03*
Y-10787D02*
D03*
Y-10984D02*
D03*
Y-10591D02*
D03*
D79*
X3031Y-12579D02*
D03*
X3228D02*
D03*
X3425D02*
D03*
X3622D02*
D03*
X3819D02*
D03*
X4016D02*
D03*
X4213D02*
D03*
X4409D02*
D03*
X4606D02*
D03*
X4803D02*
D03*
X5000D02*
D03*
X5197D02*
D03*
X5394D02*
D03*
X5591D02*
D03*
X5787D02*
D03*
X5984D02*
D03*
X6181D02*
D03*
X6378D02*
D03*
X6575D02*
D03*
X6772D02*
D03*
X6969D02*
D03*
X7165D02*
D03*
X7362D02*
D03*
X7559D02*
D03*
X7756D02*
D03*
Y-6634D02*
D03*
X7559D02*
D03*
X7362D02*
D03*
X7165D02*
D03*
X6969D02*
D03*
X6772D02*
D03*
X6575D02*
D03*
X6378D02*
D03*
X6181D02*
D03*
X5984D02*
D03*
X5787D02*
D03*
X5591D02*
D03*
X5394D02*
D03*
X5197D02*
D03*
X5000D02*
D03*
X4803D02*
D03*
X4606D02*
D03*
X4409D02*
D03*
X4213D02*
D03*
X4016D02*
D03*
X3819D02*
D03*
X3622D02*
D03*
X3425D02*
D03*
X3228D02*
D03*
X3031D02*
D03*
D80*
X5463Y-16004D02*
D03*
X6270D02*
D03*
D81*
X4488D02*
D03*
X7244D02*
D03*
D82*
X5354Y-14882D02*
D03*
X5610D02*
D03*
X5866D02*
D03*
X6122D02*
D03*
X6378D02*
D03*
M02*
