G04*
G04 #@! TF.GenerationSoftware,Altium Limited,Altium Designer,20.2.6 (244)*
G04*
G04 Layer_Color=8421504*
%FSLAX24Y24*%
%MOIN*%
G70*
G04*
G04 #@! TF.SameCoordinates,49DCD013-E9FA-4731-AA8E-B93FF918964A*
G04*
G04*
G04 #@! TF.FilePolarity,Positive*
G04*
G01*
G75*
%ADD15C,0.0100*%
%ADD21R,0.0256X0.0217*%
%ADD22C,0.0200*%
%ADD23R,0.0256X0.0354*%
%ADD24O,0.0157X0.0551*%
%ADD25R,0.0551X0.0413*%
%ADD26R,0.0413X0.0453*%
%ADD27R,0.0394X0.0354*%
%ADD28O,0.0138X0.0787*%
%ADD29R,0.0551X0.0472*%
%ADD30R,0.0299X0.0945*%
%ADD31R,0.0236X0.0197*%
%ADD32R,0.0354X0.0256*%
%ADD33O,0.0945X0.0315*%
%ADD34R,0.0945X0.0315*%
%ADD35R,0.0689X0.0571*%
%ADD36R,0.0295X0.0118*%
G04:AMPARAMS|DCode=37|XSize=11.8mil|YSize=29.5mil|CornerRadius=5.9mil|HoleSize=0mil|Usage=FLASHONLY|Rotation=270.000|XOffset=0mil|YOffset=0mil|HoleType=Round|Shape=RoundedRectangle|*
%AMROUNDEDRECTD37*
21,1,0.0118,0.0177,0,0,270.0*
21,1,0.0000,0.0295,0,0,270.0*
1,1,0.0118,-0.0089,0.0000*
1,1,0.0118,-0.0089,0.0000*
1,1,0.0118,0.0089,0.0000*
1,1,0.0118,0.0089,0.0000*
%
%ADD37ROUNDEDRECTD37*%
%ADD38R,0.0752X0.0299*%
%ADD39R,0.0268X0.0220*%
%ADD40R,0.0217X0.0256*%
D15*
X-7450Y-1110D02*
X-7051D01*
X-7251D01*
Y-1710D01*
X-6751D02*
X-6551D01*
X-6451Y-1610D01*
Y-1410D01*
X-6551Y-1310D01*
X-6751D01*
X-6851Y-1410D01*
Y-1610D01*
X-6751Y-1710D01*
X-6251Y-1910D02*
Y-1310D01*
X-5951D01*
X-5851Y-1410D01*
Y-1610D01*
X-5951Y-1710D01*
X-6251D01*
X-5051D02*
Y-1110D01*
X-4751D01*
X-4651Y-1210D01*
Y-1410D01*
X-4751Y-1510D01*
X-5051D01*
X-4351Y-1310D02*
X-4152D01*
X-4052Y-1410D01*
Y-1710D01*
X-4351D01*
X-4451Y-1610D01*
X-4351Y-1510D01*
X-4052D01*
X-3852Y-1710D02*
X-3552D01*
X-3452Y-1610D01*
X-3552Y-1510D01*
X-3752D01*
X-3852Y-1410D01*
X-3752Y-1310D01*
X-3452D01*
X-3152Y-1210D02*
Y-1310D01*
X-3252D01*
X-3052D01*
X-3152D01*
Y-1610D01*
X-3052Y-1710D01*
X-2452D02*
X-2652D01*
X-2752Y-1610D01*
Y-1410D01*
X-2652Y-1310D01*
X-2452D01*
X-2352Y-1410D01*
Y-1510D01*
X-2752D01*
D21*
X11330Y-1447D02*
D03*
Y-1053D02*
D03*
X8320Y-5027D02*
D03*
Y-4633D02*
D03*
X4000Y-11713D02*
D03*
Y-12107D02*
D03*
X10748Y-15118D02*
D03*
Y-14724D02*
D03*
X1556Y-15866D02*
D03*
Y-15472D02*
D03*
X1031Y-15866D02*
D03*
Y-15472D02*
D03*
X5079Y-8228D02*
D03*
Y-7835D02*
D03*
X3268Y-7874D02*
D03*
Y-8268D02*
D03*
X8858Y-13425D02*
D03*
Y-13819D02*
D03*
X8268Y-13425D02*
D03*
Y-13819D02*
D03*
X9803Y-16063D02*
D03*
Y-16457D02*
D03*
X9213Y-16063D02*
D03*
Y-16457D02*
D03*
X10394Y-16063D02*
D03*
Y-16457D02*
D03*
X12190Y-4923D02*
D03*
Y-5317D02*
D03*
X12560Y-4913D02*
D03*
Y-5307D02*
D03*
X2081Y-15866D02*
D03*
Y-15472D02*
D03*
X2606Y-15866D02*
D03*
Y-15472D02*
D03*
X3937Y-5591D02*
D03*
Y-5197D02*
D03*
X7420Y-10096D02*
D03*
Y-10490D02*
D03*
X7020Y-10497D02*
D03*
Y-10103D02*
D03*
X4331Y-4803D02*
D03*
Y-5197D02*
D03*
X5950Y-10548D02*
D03*
Y-10155D02*
D03*
X8820Y-5027D02*
D03*
Y-4633D02*
D03*
X9260Y-4633D02*
D03*
Y-5027D02*
D03*
X9680Y-5027D02*
D03*
Y-4633D02*
D03*
X11280Y-5827D02*
D03*
Y-5433D02*
D03*
X11700Y-5827D02*
D03*
Y-5433D02*
D03*
X8610Y-2223D02*
D03*
Y-2617D02*
D03*
X8170Y-2223D02*
D03*
Y-2617D02*
D03*
D22*
X9740Y-5530D02*
D03*
X7930Y-5239D02*
D03*
X8170Y-5830D02*
D03*
X5370Y-2800D02*
D03*
X4710Y-2450D02*
D03*
X4690Y-10630D02*
D03*
X2730Y-2070D02*
D03*
X4690Y-11780D02*
D03*
X2380Y-2240D02*
D03*
X2030Y-2070D02*
D03*
X1680Y-2240D02*
D03*
X7616Y-6050D02*
D03*
X9230Y-5810D02*
D03*
X7950Y-4530D02*
D03*
X10970Y-5830D02*
D03*
X12030Y-5820D02*
D03*
D23*
X12232Y-1130D02*
D03*
X11720D02*
D03*
X1122Y-3583D02*
D03*
X610D02*
D03*
X7087Y-7559D02*
D03*
X7598D02*
D03*
X8740Y-14921D02*
D03*
X9252D02*
D03*
X11417Y-14331D02*
D03*
X11929D02*
D03*
X9291Y-12165D02*
D03*
X9803D02*
D03*
X6535Y-6614D02*
D03*
X7047D02*
D03*
X610Y-4488D02*
D03*
X1122D02*
D03*
D24*
X11488Y-2020D02*
D03*
X12512D02*
D03*
X12256D02*
D03*
X12000D02*
D03*
X11744D02*
D03*
X11232D02*
D03*
X10976D02*
D03*
X10720D02*
D03*
X12512Y-4343D02*
D03*
X12256D02*
D03*
X12000D02*
D03*
X11744D02*
D03*
X11488D02*
D03*
X11232D02*
D03*
X10976D02*
D03*
X10720D02*
D03*
D25*
X551Y-2185D02*
D03*
Y-2933D02*
D03*
X472Y-5098D02*
D03*
Y-5846D02*
D03*
D26*
X1088Y-9144D02*
D03*
X502Y-9144D02*
D03*
X1088Y-10463D02*
D03*
X502D02*
D03*
X1088Y-11270D02*
D03*
X502Y-11270D02*
D03*
X1088Y-12589D02*
D03*
X502D02*
D03*
D27*
X4547Y-7776D02*
D03*
X3819D02*
D03*
Y-8386D02*
D03*
X4547D02*
D03*
D28*
X1555Y-5236D02*
D03*
X1811D02*
D03*
X2067D02*
D03*
X2323D02*
D03*
X2579D02*
D03*
X2835D02*
D03*
X3091D02*
D03*
X1555Y-2953D02*
D03*
X1811D02*
D03*
X2067D02*
D03*
X2323D02*
D03*
X2579D02*
D03*
X2835D02*
D03*
X3091D02*
D03*
D29*
X5630Y-12638D02*
D03*
X6575D02*
D03*
Y-13386D02*
D03*
X5630D02*
D03*
D30*
X7299Y-14665D02*
D03*
Y-16201D02*
D03*
X6799Y-14665D02*
D03*
Y-16201D02*
D03*
X6299Y-14665D02*
D03*
Y-16201D02*
D03*
X5799Y-14665D02*
D03*
Y-16201D02*
D03*
X5299D02*
D03*
Y-14665D02*
D03*
D31*
X2606Y-16594D02*
D03*
Y-16240D02*
D03*
X1556Y-16594D02*
D03*
Y-16240D02*
D03*
X1031Y-16594D02*
D03*
Y-16240D02*
D03*
X2081Y-16594D02*
D03*
Y-16240D02*
D03*
D32*
X8031Y-8465D02*
D03*
Y-7953D02*
D03*
X3730Y-3528D02*
D03*
Y-4040D02*
D03*
X6614Y-7953D02*
D03*
Y-8465D02*
D03*
X7087Y-7953D02*
D03*
Y-8465D02*
D03*
X10906Y-16024D02*
D03*
Y-16535D02*
D03*
X2300Y-6732D02*
D03*
Y-6220D02*
D03*
X5118Y-6378D02*
D03*
Y-6890D02*
D03*
X7598Y-7953D02*
D03*
Y-8465D02*
D03*
X3031Y-11890D02*
D03*
Y-11378D02*
D03*
X5630Y-7953D02*
D03*
Y-8465D02*
D03*
X6102Y-7953D02*
D03*
Y-8465D02*
D03*
X4016Y-6398D02*
D03*
Y-6909D02*
D03*
D33*
X7115Y-5739D02*
D03*
Y-5239D02*
D03*
Y-4739D02*
D03*
Y-4239D02*
D03*
X5146Y-5739D02*
D03*
Y-5239D02*
D03*
Y-4739D02*
D03*
D34*
Y-4239D02*
D03*
D35*
X6909Y-9429D02*
D03*
D36*
X7480Y-9134D02*
D03*
Y-9331D02*
D03*
Y-9528D02*
D03*
Y-9724D02*
D03*
X6339D02*
D03*
Y-9528D02*
D03*
Y-9331D02*
D03*
D37*
Y-9134D02*
D03*
D38*
X9050Y-7350D02*
D03*
Y-6850D02*
D03*
Y-10350D02*
D03*
Y-9850D02*
D03*
X12450Y-7350D02*
D03*
Y-7850D02*
D03*
Y-6850D02*
D03*
Y-9350D02*
D03*
Y-10350D02*
D03*
Y-9850D02*
D03*
X9050Y-9350D02*
D03*
Y-7850D02*
D03*
D39*
X3730Y-2170D02*
D03*
Y-3130D02*
D03*
D40*
X10276Y-14961D02*
D03*
X9882D02*
D03*
X6614Y-7559D02*
D03*
X6220D02*
D03*
X5000Y-13386D02*
D03*
X4606D02*
D03*
X8858Y-14409D02*
D03*
X9252D02*
D03*
X11417Y-15630D02*
D03*
X11811D02*
D03*
X11417Y-16260D02*
D03*
X11811D02*
D03*
X11417Y-15000D02*
D03*
X11811D02*
D03*
X4685Y-10984D02*
D03*
X5079D02*
D03*
X4685Y-11417D02*
D03*
X5079D02*
D03*
X5039Y-9055D02*
D03*
X4646D02*
D03*
X5039Y-9488D02*
D03*
X4646D02*
D03*
X9882Y-15512D02*
D03*
X10276D02*
D03*
M02*
