M48
;Layer_Color=9474304
;FILE_FORMAT=2:4
INCH,TZ
;TYPE=PLATED
T1F00S00C0.0100
T2F00S00C0.0290
T3F00S00C0.0350
T4F00S00C0.0354
T5F00S00C0.1181
%
T01
X8031Y-16501
X8850Y-16300
X9090Y-15670
X9606Y-15551
X10760Y-15670
X11440Y-16610
X12330Y-16260
X12303Y-15571
X11086Y-15374
X10748Y-15354
Y-14449
X11102Y-14331
X10100Y-14520
X9780Y-14470
X9960Y-14240
X9980Y-13670
X10270Y-13660
X9240Y-13960
X8550Y-13220
X8510Y-12700
X8110
X8440Y-12180
X8990Y-12160
X9260Y-11600
X9021Y-11181
X7842Y-11126
X7640Y-11660
X7290Y-11650
X7080Y-11460
X6640Y-11590
X6840Y-11790
X7370Y-12050
X7720Y-10500
X7810Y-9240
X7087Y-8740
X7205Y-7205
X6614Y-7244
X6181Y-7283
X5079Y-7480
X4800Y-7140
X4173Y-7402
X3819Y-7431
X3228Y-7522
X2250Y-7000
X1950Y-6510
X2620Y-6490
X3070Y-6100
Y-5820
X3090Y-4620
X3170Y-3990
X2720Y-4000
X2070Y-4030
X1950Y-4500
X3670Y-4440
X4390Y-4110
X4530Y-3780
X4740Y-3540
X5240Y-3580
X5750Y-3390
X6614Y-4016
X7890Y-3840
X8430Y-3820
X8160Y-3520
X8020Y-4890
X8310Y-5570
X8580Y-5910
X8926Y-5810
X9160Y-5530
X10299Y-5660
X10559
X10867Y-6713
X11147
X11910Y-6850
X11900Y-7350
X12162Y-6060
X12550Y-5780
X12547Y-8657
X12153Y-8650
X11890Y-9840
X11900Y-10340
X12550Y-11280
X12660Y-14360
X9090Y-15380
X7870Y-14920
X7299Y-15409
X5860Y-15480
X5050Y-15490
X4920Y-14940
X4950Y-14660
X4400Y-14950
X4290Y-15260
X3890Y-15250
X3440Y-15040
X2606Y-15197
X2530Y-13100
X2710Y-12580
X3330Y-11890
X3031Y-11092
X2950Y-10670
Y-9680
X3160Y-9880
X3590Y-9010
X4646Y-8819
X5079Y-8569
X5510Y-9300
X5750Y-9100
X5660Y-10160
X5050Y-10590
X4290Y-11000
X4280Y-11280
X3990Y-11400
X4296Y-13386
X4270Y-13680
X4470Y-13890
X5220Y-13580
X6120Y-13500
X6693Y-10000
X7874Y-7638
X8040Y-6830
X6575Y-6105
X5000
X4016
X1890Y-8110
X9160Y-8230
X9050Y-8650
X9340Y-8840
X10190Y-8850
X10230Y-9350
X10190Y-7860
X10079Y-12165
X9730Y-3370
Y-2260
X7738Y-2288
X7240Y-2280
X6670Y-2220
X6210
X5450Y-460
X7130Y-470
X10520Y-460
X11460Y-790
X12200Y-780
X12751Y-389
X11480Y-3810
X3240Y-460
X1620Y-450
X551Y-827
X620Y-3885
X1238Y-4038
X1560Y-3630
X1276Y-5236
X950Y-4950
X1710Y-6200
X1750Y-7150
X1090Y-9600
X502Y-10082
X1100Y-10900
X1709Y-11181
X1730Y-11570
X1088Y-13012
X500Y-13040
X1031Y-15157
T02
X2238Y-1493
X2738
X3238
X3738
X4238
X4738
X5238
X5738
X6238
X6738
X7238
X7738
X8238
X8738
X9238
X9738
X1738
X1238
T03
X457Y-7677
X1457
Y-6677
X457
T04
X2543Y-14291
X3543
T05
X1181Y-14173
M30
