G04*
G04 #@! TF.GenerationSoftware,Altium Limited,Altium Designer,20.2.6 (244)*
G04*
G04 Layer_Physical_Order=4*
G04 Layer_Color=16711680*
%FSLAX24Y24*%
%MOIN*%
G70*
G04*
G04 #@! TF.SameCoordinates,49DCD013-E9FA-4731-AA8E-B93FF918964A*
G04*
G04*
G04 #@! TF.FilePolarity,Positive*
G04*
G01*
G75*
%ADD11C,0.0098*%
%ADD12C,0.0079*%
%ADD15C,0.0100*%
%ADD16C,0.0120*%
%ADD19C,0.0080*%
%ADD21R,0.0256X0.0217*%
%ADD22C,0.0200*%
%ADD23R,0.0256X0.0354*%
%ADD32R,0.0354X0.0256*%
%ADD40R,0.0217X0.0256*%
%ADD58C,0.0060*%
%ADD61C,0.0150*%
%ADD62C,0.0440*%
%ADD63C,0.0550*%
%ADD64C,0.0591*%
%ADD65C,0.1050*%
%ADD66C,0.0220*%
G04:AMPARAMS|DCode=67|XSize=11.8mil|YSize=65mil|CornerRadius=1.9mil|HoleSize=0mil|Usage=FLASHONLY|Rotation=270.000|XOffset=0mil|YOffset=0mil|HoleType=Round|Shape=RoundedRectangle|*
%AMROUNDEDRECTD67*
21,1,0.0118,0.0611,0,0,270.0*
21,1,0.0079,0.0650,0,0,270.0*
1,1,0.0039,-0.0305,-0.0040*
1,1,0.0039,-0.0305,0.0040*
1,1,0.0039,0.0305,0.0040*
1,1,0.0039,0.0305,-0.0040*
%
%ADD67ROUNDEDRECTD67*%
G04:AMPARAMS|DCode=68|XSize=11.8mil|YSize=65mil|CornerRadius=1.9mil|HoleSize=0mil|Usage=FLASHONLY|Rotation=180.000|XOffset=0mil|YOffset=0mil|HoleType=Round|Shape=RoundedRectangle|*
%AMROUNDEDRECTD68*
21,1,0.0118,0.0611,0,0,180.0*
21,1,0.0079,0.0650,0,0,180.0*
1,1,0.0039,-0.0040,0.0305*
1,1,0.0039,0.0040,0.0305*
1,1,0.0039,0.0040,-0.0305*
1,1,0.0039,-0.0040,-0.0305*
%
%ADD68ROUNDEDRECTD68*%
%ADD69R,0.0300X0.0700*%
%ADD70O,0.0709X0.0118*%
%ADD71O,0.0118X0.0709*%
%ADD72R,0.0610X0.0748*%
%ADD73R,0.0906X0.0748*%
%ADD74R,0.0157X0.0551*%
G36*
X8500Y-5624D02*
X8539Y-5632D01*
X8797D01*
X8812Y-5682D01*
X8804Y-5687D01*
X8766Y-5744D01*
X8753Y-5810D01*
X8766Y-5876D01*
X8804Y-5933D01*
X8824Y-5946D01*
Y-6026D01*
X8832Y-6065D01*
X8854Y-6098D01*
X9096Y-6341D01*
X9093Y-6361D01*
X9039Y-6399D01*
X9029Y-6397D01*
X8970Y-6409D01*
X8963Y-6414D01*
X9064Y-6515D01*
X9029Y-6550D01*
X9064Y-6585D01*
X8949Y-6700D01*
X8943Y-6733D01*
X8870Y-6781D01*
X8822Y-6854D01*
X8805Y-6940D01*
X8817Y-7003D01*
X8739Y-7081D01*
X8731Y-7075D01*
X8661Y-7062D01*
X8071D01*
X8001Y-7075D01*
X7942Y-7115D01*
X7908Y-7166D01*
X7869Y-7161D01*
X7858Y-7157D01*
Y-7076D01*
X7885Y-7058D01*
X7925Y-6999D01*
X7938Y-6929D01*
Y-6339D01*
X7925Y-6269D01*
X7885Y-6209D01*
X7826Y-6170D01*
X7756Y-6156D01*
X7686Y-6170D01*
X7657Y-6189D01*
X7629Y-6170D01*
X7559Y-6156D01*
X7489Y-6170D01*
X7461Y-6189D01*
X7432Y-6170D01*
X7362Y-6156D01*
X7292Y-6170D01*
X7264Y-6189D01*
X7235Y-6170D01*
X7165Y-6156D01*
X7095Y-6170D01*
X7067Y-6189D01*
X7038Y-6170D01*
X6969Y-6156D01*
X6899Y-6170D01*
X6839Y-6209D01*
X6819Y-6239D01*
X6814Y-6236D01*
X6772Y-6227D01*
X6769Y-6228D01*
X6739Y-6183D01*
X6744Y-6175D01*
X6758Y-6105D01*
X6744Y-6035D01*
X6705Y-5975D01*
X6645Y-5935D01*
X6575Y-5921D01*
X6505Y-5935D01*
X6445Y-5975D01*
X6405Y-6035D01*
X6391Y-6105D01*
X6398Y-6136D01*
X6378Y-6156D01*
X6308Y-6170D01*
X6280Y-6189D01*
X6251Y-6170D01*
X6181Y-6156D01*
X6111Y-6170D01*
X6083Y-6189D01*
X6054Y-6170D01*
X5984Y-6156D01*
X5914Y-6170D01*
X5886Y-6189D01*
X5857Y-6170D01*
X5787Y-6156D01*
X5718Y-6170D01*
X5689Y-6189D01*
X5660Y-6170D01*
X5591Y-6156D01*
X5521Y-6170D01*
X5492Y-6189D01*
X5464Y-6170D01*
X5394Y-6156D01*
X5324Y-6170D01*
X5295Y-6189D01*
X5267Y-6170D01*
X5197Y-6156D01*
X5177Y-6136D01*
X5184Y-6105D01*
X5170Y-6035D01*
X5130Y-5975D01*
X5070Y-5935D01*
X5035Y-5928D01*
X5018Y-5874D01*
X5220Y-5672D01*
X8174D01*
X8187Y-5693D01*
X8244Y-5730D01*
X8310Y-5743D01*
X8376Y-5730D01*
X8433Y-5693D01*
X8470Y-5636D01*
X8500Y-5624D01*
X8500Y-5624D01*
D02*
G37*
G36*
X12895Y-14428D02*
X12521D01*
X12663Y-14571D01*
X12593Y-14642D01*
X12450Y-14499D01*
Y-14635D01*
X12400Y-14640D01*
X12397Y-14626D01*
X12375Y-14593D01*
X12308Y-14526D01*
X12304Y-14482D01*
X12309Y-14463D01*
X12808Y-13964D01*
X12808Y-13964D01*
X12832Y-13928D01*
X12840Y-13885D01*
X12840Y-13885D01*
Y-12933D01*
X12832Y-12890D01*
X12808Y-12854D01*
X12808Y-12854D01*
X12372Y-12418D01*
Y-12034D01*
X12372Y-12034D01*
X12363Y-11991D01*
X12339Y-11955D01*
X11482Y-11098D01*
Y-10376D01*
X11566Y-10292D01*
X11694D01*
X11729Y-10327D01*
X11727Y-10340D01*
X11740Y-10406D01*
X11777Y-10463D01*
X11834Y-10500D01*
X11900Y-10513D01*
X11915Y-10526D01*
Y-10595D01*
X11958D01*
X11995Y-10626D01*
X11995Y-10645D01*
Y-10911D01*
X12118Y-10789D01*
X12189Y-10859D01*
X12066Y-10982D01*
X12311Y-10982D01*
X12319Y-11029D01*
Y-11052D01*
X12425D01*
Y-11161D01*
X12390Y-11214D01*
X12377Y-11280D01*
X12390Y-11346D01*
X12427Y-11403D01*
X12484Y-11440D01*
X12550Y-11453D01*
X12616Y-11440D01*
X12673Y-11403D01*
X12710Y-11346D01*
X12723Y-11280D01*
X12710Y-11214D01*
X12673Y-11157D01*
X12668Y-11155D01*
Y-11052D01*
X12775D01*
Y-10556D01*
X12765D01*
Y-10099D01*
X12775Y-10098D01*
Y-9608D01*
Y-9163D01*
Y-8697D01*
X12775Y-8667D01*
X12775D01*
Y-8647D01*
X12775D01*
Y-8151D01*
X12668D01*
Y-8098D01*
X12775D01*
Y-7602D01*
X12775D01*
X12775Y-7598D01*
X12775D01*
Y-7102D01*
X12775D01*
X12775Y-7098D01*
X12775D01*
Y-6602D01*
X12775D01*
X12775Y-6598D01*
X12775D01*
Y-6102D01*
X12668D01*
Y-5905D01*
X12673Y-5903D01*
X12710Y-5846D01*
X12723Y-5780D01*
X12710Y-5714D01*
X12673Y-5657D01*
X12616Y-5620D01*
X12550Y-5607D01*
X12484Y-5620D01*
X12427Y-5657D01*
X12390Y-5714D01*
X12377Y-5780D01*
X12390Y-5846D01*
X12425Y-5899D01*
Y-6102D01*
X12319D01*
Y-6125D01*
X12311Y-6172D01*
X12269Y-6172D01*
X12066D01*
X12189Y-6295D01*
X12133Y-6350D01*
X12189Y-6405D01*
X12066Y-6528D01*
X12268Y-6528D01*
X12295Y-6578D01*
X12280Y-6601D01*
X12270Y-6602D01*
X11925D01*
Y-6664D01*
X11910Y-6677D01*
X11844Y-6690D01*
X11787Y-6727D01*
X11750Y-6784D01*
X11737Y-6850D01*
X11744Y-6888D01*
X11708Y-6930D01*
X11551D01*
X11509Y-6938D01*
X11472Y-6962D01*
X11472Y-6962D01*
X11251Y-7184D01*
X11227Y-7220D01*
X11218Y-7263D01*
X11218Y-7263D01*
Y-9338D01*
X11141Y-9415D01*
X11095Y-9396D01*
Y-9092D01*
X11085Y-9091D01*
Y-8595D01*
X11085D01*
Y-8595D01*
X11085D01*
Y-8099D01*
X11085D01*
Y-8098D01*
X11085D01*
Y-7602D01*
X10235D01*
Y-7656D01*
X10196Y-7688D01*
X10190Y-7687D01*
X10124Y-7700D01*
X10116Y-7705D01*
X10072Y-7681D01*
Y-5178D01*
X10064Y-5139D01*
X10042Y-5106D01*
X8714Y-3778D01*
X8714Y-3778D01*
X8684Y-3748D01*
X8651Y-3726D01*
X8612Y-3718D01*
X8578D01*
X8560Y-3690D01*
X8500Y-3650D01*
X8430Y-3636D01*
X8360Y-3650D01*
X8300Y-3690D01*
X8260Y-3750D01*
X8246Y-3820D01*
X8260Y-3890D01*
X8300Y-3950D01*
X8360Y-3990D01*
X8430Y-4004D01*
X8500Y-3990D01*
X8560Y-3950D01*
X8594Y-3946D01*
X8819Y-4172D01*
X8800Y-4218D01*
X8402D01*
X8065Y-3881D01*
X8074Y-3840D01*
X8060Y-3770D01*
X8020Y-3710D01*
X7960Y-3670D01*
X7890Y-3656D01*
X7820Y-3670D01*
X7760Y-3710D01*
X7720Y-3770D01*
X7706Y-3840D01*
X7720Y-3910D01*
X7760Y-3970D01*
X7820Y-4010D01*
X7890Y-4024D01*
X7914Y-4019D01*
X8188Y-4292D01*
X8169Y-4338D01*
X7742D01*
X6910Y-3506D01*
X6930Y-3460D01*
X8820D01*
Y-3637D01*
X8820Y-3637D01*
X8828Y-3680D01*
X8852Y-3716D01*
X9065Y-3929D01*
X9065Y-3929D01*
X9101Y-3953D01*
X9144Y-3962D01*
X9144Y-3962D01*
X9358D01*
X10248Y-4852D01*
Y-5497D01*
X10233Y-5500D01*
X10177Y-5537D01*
X10139Y-5594D01*
X10126Y-5660D01*
X10139Y-5726D01*
X10177Y-5783D01*
X10233Y-5820D01*
X10299Y-5833D01*
X10366Y-5820D01*
X10422Y-5783D01*
X10437D01*
X10493Y-5820D01*
X10559Y-5833D01*
X10626Y-5820D01*
X10682Y-5783D01*
X10720Y-5726D01*
X10733Y-5660D01*
X10720Y-5594D01*
X10682Y-5537D01*
X10626Y-5500D01*
X10610Y-5497D01*
Y-4749D01*
X10602Y-4706D01*
X10578Y-4670D01*
X9540Y-3632D01*
X9504Y-3608D01*
X9461Y-3600D01*
X9461Y-3600D01*
X9247D01*
X9182Y-3534D01*
Y-3460D01*
X10140D01*
Y-2260D01*
X6885D01*
X6853Y-2221D01*
X6854Y-2220D01*
X6840Y-2150D01*
X6800Y-2090D01*
X6740Y-2050D01*
X6670Y-2036D01*
X6637Y-2043D01*
X6550Y-1956D01*
X6570Y-1910D01*
X10135D01*
Y-1360D01*
X9885Y-1110D01*
X8162D01*
Y-986D01*
X8276Y-872D01*
X9984D01*
X10827Y-1714D01*
Y-6410D01*
X10781Y-6456D01*
X10757Y-6492D01*
X10748Y-6535D01*
X10748Y-6535D01*
Y-6576D01*
X10738Y-6583D01*
X10698Y-6643D01*
X10684Y-6713D01*
X10698Y-6783D01*
X10738Y-6843D01*
X10797Y-6883D01*
X10867Y-6897D01*
X10938Y-6883D01*
X10997Y-6843D01*
X11018D01*
X11077Y-6883D01*
X11147Y-6897D01*
X11218Y-6883D01*
X11277Y-6843D01*
X11317Y-6783D01*
X11331Y-6713D01*
X11317Y-6643D01*
X11277Y-6583D01*
X11259Y-6571D01*
Y-6522D01*
X11259Y-6522D01*
X11251Y-6480D01*
X11226Y-6443D01*
X11188Y-6405D01*
Y-1611D01*
X11188Y-1611D01*
X11180Y-1568D01*
X11156Y-1532D01*
X10166Y-542D01*
X10130Y-518D01*
X10087Y-510D01*
X10087Y-510D01*
X8173D01*
X8130Y-518D01*
X8094Y-542D01*
X8094Y-542D01*
X7832Y-804D01*
X7808Y-840D01*
X7800Y-883D01*
X7800Y-883D01*
Y-1110D01*
X7635D01*
X7535Y-1010D01*
X785D01*
Y-1910D01*
X5756D01*
X6033Y-2187D01*
X6026Y-2220D01*
X6027Y-2221D01*
X5995Y-2260D01*
X840D01*
Y-3460D01*
X1136D01*
Y-3890D01*
X1108Y-3908D01*
X1069Y-3968D01*
X1055Y-4038D01*
X1069Y-4108D01*
X1108Y-4168D01*
X1168Y-4208D01*
X1238Y-4222D01*
X1308Y-4208D01*
X1368Y-4168D01*
X1408Y-4108D01*
X1422Y-4038D01*
X1408Y-3968D01*
X1368Y-3908D01*
X1340Y-3890D01*
Y-3460D01*
X2020D01*
X2040Y-3506D01*
X1998Y-3548D01*
X1976Y-3581D01*
X1968Y-3620D01*
Y-3882D01*
X1940Y-3900D01*
X1900Y-3960D01*
X1886Y-4030D01*
X1900Y-4100D01*
X1940Y-4160D01*
X2000Y-4200D01*
X2070Y-4214D01*
X2140Y-4200D01*
X2200Y-4160D01*
X2240Y-4100D01*
X2254Y-4030D01*
X2240Y-3960D01*
X2200Y-3900D01*
X2172Y-3882D01*
Y-3662D01*
X2310Y-3524D01*
X2332Y-3491D01*
X2339Y-3460D01*
X2636D01*
Y-3839D01*
X2590Y-3870D01*
X2550Y-3930D01*
X2536Y-4000D01*
X2550Y-4070D01*
X2590Y-4130D01*
X2650Y-4170D01*
X2720Y-4184D01*
X2790Y-4170D01*
X2850Y-4130D01*
X2890Y-4070D01*
X2904Y-4000D01*
X2890Y-3930D01*
X2850Y-3870D01*
X2840Y-3864D01*
Y-3460D01*
X3135D01*
X3136Y-3510D01*
X3098Y-3548D01*
X3076Y-3581D01*
X3068Y-3620D01*
Y-3842D01*
X3040Y-3860D01*
X3000Y-3920D01*
X2986Y-3990D01*
X3000Y-4060D01*
X3040Y-4120D01*
X3100Y-4160D01*
X3170Y-4174D01*
X3240Y-4160D01*
X3300Y-4120D01*
X3340Y-4060D01*
X3354Y-3990D01*
X3340Y-3920D01*
X3300Y-3860D01*
X3272Y-3842D01*
Y-3662D01*
X3310Y-3624D01*
X3332Y-3591D01*
X3340Y-3552D01*
Y-3460D01*
X3636D01*
Y-3658D01*
X3644Y-3697D01*
X3666Y-3730D01*
X4118Y-4182D01*
X4151Y-4204D01*
X4190Y-4212D01*
X4242D01*
X4260Y-4240D01*
X4320Y-4280D01*
X4390Y-4294D01*
X4460Y-4280D01*
X4520Y-4240D01*
X4560Y-4180D01*
X4574Y-4110D01*
X4560Y-4040D01*
X4541Y-4012D01*
X4564Y-3957D01*
X4600Y-3950D01*
X4660Y-3910D01*
X4700Y-3850D01*
X4714Y-3780D01*
X4709Y-3755D01*
X4740Y-3724D01*
X4810Y-3710D01*
X4870Y-3670D01*
X4910Y-3610D01*
X4924Y-3540D01*
X4918Y-3510D01*
X4959Y-3460D01*
X5051D01*
X5074Y-3504D01*
X5070Y-3510D01*
X5056Y-3580D01*
X5070Y-3650D01*
X5110Y-3710D01*
X5170Y-3750D01*
X5240Y-3764D01*
X5310Y-3750D01*
X5370Y-3710D01*
X5410Y-3650D01*
X5424Y-3580D01*
X5410Y-3510D01*
X5406Y-3504D01*
X5429Y-3460D01*
X6276D01*
X6600Y-3784D01*
X6589Y-3828D01*
X6582Y-3837D01*
X6091D01*
Y-4431D01*
X6587D01*
Y-4230D01*
X6590Y-4228D01*
X6619Y-4198D01*
X6684Y-4185D01*
X6744Y-4146D01*
X6784Y-4086D01*
X6792Y-4046D01*
X6846Y-4030D01*
X7448Y-4632D01*
X7481Y-4654D01*
X7520Y-4662D01*
X8800D01*
X8880Y-4742D01*
X8861Y-4788D01*
X8156D01*
X8143Y-4767D01*
X8086Y-4730D01*
X8020Y-4717D01*
X7954Y-4730D01*
X7897Y-4767D01*
X7860Y-4824D01*
X7847Y-4890D01*
X7860Y-4956D01*
X7897Y-5013D01*
X7954Y-5050D01*
X8020Y-5063D01*
X8086Y-5050D01*
X8143Y-5013D01*
X8156Y-4992D01*
X8961D01*
X9272Y-5303D01*
X9268Y-5326D01*
X9259Y-5334D01*
X9213Y-5357D01*
X9160Y-5346D01*
X9090Y-5360D01*
X9030Y-5400D01*
X9012Y-5428D01*
X8581D01*
X8461Y-5308D01*
X8428Y-5286D01*
X8389Y-5278D01*
X5181D01*
X5178Y-5276D01*
X5139Y-5268D01*
X5100Y-5276D01*
X5067Y-5298D01*
X4337Y-6027D01*
X4315Y-6060D01*
X4307Y-6099D01*
Y-6131D01*
X4257Y-6165D01*
X4213Y-6156D01*
X4193Y-6136D01*
X4199Y-6105D01*
X4185Y-6035D01*
X4146Y-5975D01*
X4086Y-5935D01*
X4016Y-5921D01*
X3946Y-5935D01*
X3886Y-5975D01*
X3846Y-6035D01*
X3832Y-6105D01*
X3839Y-6136D01*
X3819Y-6156D01*
X3749Y-6170D01*
X3720Y-6189D01*
X3692Y-6170D01*
X3622Y-6156D01*
X3577Y-6165D01*
X3527Y-6131D01*
Y-6025D01*
X3519Y-5986D01*
X3497Y-5953D01*
X3292Y-5748D01*
X3259Y-5726D01*
X3220Y-5718D01*
X3218D01*
X3200Y-5690D01*
X3140Y-5650D01*
X3070Y-5636D01*
X3000Y-5650D01*
X2940Y-5690D01*
X2900Y-5750D01*
X2886Y-5820D01*
X2900Y-5890D01*
X2940Y-5950D01*
Y-5970D01*
X2900Y-6030D01*
X2886Y-6100D01*
X2900Y-6170D01*
X2908Y-6181D01*
X2902Y-6209D01*
X2863Y-6269D01*
X2849Y-6339D01*
Y-6462D01*
X2799Y-6467D01*
X2790Y-6420D01*
X2750Y-6360D01*
X2690Y-6320D01*
X2620Y-6306D01*
X2550Y-6320D01*
X2490Y-6360D01*
X2450Y-6420D01*
X2436Y-6490D01*
X2450Y-6560D01*
X2477Y-6601D01*
X2469Y-6623D01*
X2449Y-6648D01*
X2134D01*
X2108Y-6598D01*
X2120Y-6580D01*
X2134Y-6510D01*
X2120Y-6440D01*
X2080Y-6380D01*
X2052Y-6362D01*
Y-4648D01*
X2080Y-4630D01*
X2120Y-4570D01*
X2134Y-4500D01*
X2120Y-4430D01*
X2080Y-4370D01*
X2020Y-4330D01*
X1950Y-4316D01*
X1880Y-4330D01*
X1820Y-4370D01*
X1780Y-4430D01*
X1766Y-4500D01*
X1780Y-4570D01*
X1820Y-4630D01*
X1848Y-4648D01*
Y-6362D01*
X1820Y-6380D01*
X1806Y-6401D01*
X1745Y-6403D01*
X1738Y-6395D01*
X1656Y-6332D01*
X1560Y-6292D01*
X1457Y-6279D01*
X1354Y-6292D01*
X1257Y-6332D01*
X1175Y-6395D01*
X1112Y-6478D01*
X1072Y-6574D01*
X1058Y-6677D01*
X1072Y-6780D01*
X1112Y-6876D01*
X1175Y-6959D01*
X1257Y-7022D01*
X1344Y-7058D01*
X1334Y-7108D01*
X1032D01*
X801Y-6877D01*
X802Y-6876D01*
X842Y-6780D01*
X855Y-6677D01*
X842Y-6574D01*
X802Y-6478D01*
X738Y-6395D01*
X656Y-6332D01*
X560Y-6292D01*
X457Y-6279D01*
X354Y-6292D01*
X257Y-6332D01*
X175Y-6395D01*
X147Y-6432D01*
X97Y-6415D01*
Y-97D01*
X12895D01*
Y-14428D01*
D02*
G37*
G36*
X6729Y-7032D02*
X6772Y-7040D01*
X6814Y-7032D01*
X6819Y-7028D01*
X6839Y-7058D01*
X6867Y-7076D01*
Y-7517D01*
X6769Y-7615D01*
X6341D01*
X6283Y-7556D01*
Y-7432D01*
X6311Y-7413D01*
X6351Y-7354D01*
X6365Y-7283D01*
X6351Y-7213D01*
X6311Y-7154D01*
X6302Y-7147D01*
X6321Y-7100D01*
X6378Y-7112D01*
X6448Y-7098D01*
X6476Y-7079D01*
X6505Y-7098D01*
X6575Y-7112D01*
X6645Y-7098D01*
X6704Y-7058D01*
X6724Y-7028D01*
X6729Y-7032D01*
D02*
G37*
G36*
X4761D02*
X4803Y-7040D01*
X4846Y-7032D01*
X4851Y-7028D01*
X4871Y-7058D01*
X4930Y-7098D01*
X4944Y-7101D01*
X4961Y-7155D01*
X4816Y-7300D01*
X4322D01*
X4303Y-7272D01*
X4243Y-7232D01*
X4173Y-7218D01*
X4103Y-7232D01*
X4043Y-7272D01*
X4004Y-7331D01*
X3990Y-7402D01*
X4004Y-7472D01*
X4041Y-7528D01*
X4038Y-7544D01*
X4024Y-7578D01*
X3793D01*
X3365Y-7151D01*
X3390Y-7105D01*
X3425Y-7112D01*
X3495Y-7098D01*
X3524Y-7079D01*
X3552Y-7098D01*
X3622Y-7112D01*
X3692Y-7098D01*
X3720Y-7079D01*
X3749Y-7098D01*
X3819Y-7112D01*
X3889Y-7098D01*
X3917Y-7079D01*
X3946Y-7098D01*
X4016Y-7112D01*
X4086Y-7098D01*
X4114Y-7079D01*
X4143Y-7098D01*
X4213Y-7112D01*
X4282Y-7098D01*
X4311Y-7079D01*
X4340Y-7098D01*
X4409Y-7112D01*
X4479Y-7098D01*
X4508Y-7079D01*
X4536Y-7098D01*
X4606Y-7112D01*
X4676Y-7098D01*
X4735Y-7058D01*
X4755Y-7028D01*
X4761Y-7032D01*
D02*
G37*
G36*
X7901Y-7306D02*
X7902Y-7314D01*
X7942Y-7373D01*
X7972Y-7393D01*
X7968Y-7398D01*
X7963Y-7425D01*
X7955Y-7443D01*
X7913Y-7462D01*
X7874Y-7454D01*
X7804Y-7468D01*
X7744Y-7508D01*
X7704Y-7568D01*
X7690Y-7638D01*
X7704Y-7708D01*
X7744Y-7768D01*
X7804Y-7807D01*
X7841Y-7815D01*
X7888Y-7835D01*
X7902Y-7905D01*
X7921Y-7933D01*
X7902Y-7962D01*
X7888Y-8031D01*
X7902Y-8101D01*
X7921Y-8130D01*
X7902Y-8158D01*
X7888Y-8228D01*
X7902Y-8298D01*
X7921Y-8327D01*
X7902Y-8355D01*
X7888Y-8425D01*
X7897Y-8470D01*
X7863Y-8520D01*
X7598D01*
X7559Y-8528D01*
X7526Y-8550D01*
X7128Y-8948D01*
X7106Y-8981D01*
X7098Y-9020D01*
Y-10929D01*
X7052Y-10948D01*
X6572Y-10468D01*
Y-8592D01*
X7828Y-7336D01*
X7849Y-7304D01*
X7855Y-7303D01*
X7901Y-7306D01*
D02*
G37*
G36*
X2099Y-6902D02*
X2080Y-6930D01*
X2066Y-7000D01*
X2071Y-7022D01*
X2056Y-7075D01*
X2037Y-7088D01*
X2037Y-7088D01*
X2033Y-7091D01*
X1997Y-7115D01*
X1957Y-7174D01*
X1943Y-7244D01*
X1957Y-7314D01*
X1997Y-7373D01*
X2027Y-7393D01*
X2023Y-7398D01*
X2015Y-7441D01*
X2019Y-7465D01*
X1974Y-7489D01*
X1961Y-7477D01*
X1762Y-7278D01*
X1729Y-7256D01*
X1714Y-7253D01*
X1599Y-7138D01*
X1566Y-7116D01*
X1553Y-7113D01*
X1555Y-7063D01*
X1560Y-7062D01*
X1656Y-7022D01*
X1738Y-6959D01*
X1802Y-6876D01*
X1812Y-6852D01*
X2072D01*
X2099Y-6902D01*
D02*
G37*
G36*
X5760Y-7151D02*
X5758Y-7160D01*
Y-8060D01*
X5766Y-8099D01*
X5788Y-8132D01*
X5968Y-8312D01*
Y-9011D01*
X5922Y-9028D01*
X5918Y-9028D01*
X5880Y-8970D01*
X5820Y-8930D01*
X5750Y-8916D01*
X5680Y-8930D01*
X5620Y-8970D01*
X5602Y-8998D01*
X4792D01*
X4775Y-8949D01*
X4815Y-8889D01*
X4829Y-8819D01*
X4815Y-8749D01*
X4775Y-8689D01*
X4716Y-8649D01*
X4646Y-8635D01*
X4575Y-8649D01*
X4516Y-8689D01*
X4476Y-8749D01*
X4462Y-8819D01*
X4476Y-8889D01*
X4516Y-8949D01*
X4500Y-8998D01*
X4422D01*
X3974Y-8550D01*
X3941Y-8528D01*
X3902Y-8520D01*
X2924D01*
X2890Y-8470D01*
X2899Y-8425D01*
X2885Y-8355D01*
X2866Y-8327D01*
X2885Y-8298D01*
X2899Y-8228D01*
X2885Y-8158D01*
X2866Y-8130D01*
X2885Y-8101D01*
X2899Y-8031D01*
X2885Y-7962D01*
X2866Y-7933D01*
X2885Y-7905D01*
X2899Y-7835D01*
X2885Y-7765D01*
X2866Y-7736D01*
X2875Y-7723D01*
X2894Y-7710D01*
X2955Y-7650D01*
X2977Y-7617D01*
X2984Y-7578D01*
Y-7301D01*
X3002Y-7293D01*
X3034Y-7285D01*
X3063Y-7304D01*
X3102Y-7312D01*
X3238D01*
X3678Y-7752D01*
X3711Y-7775D01*
X3750Y-7782D01*
X5162D01*
X5201Y-7775D01*
X5234Y-7752D01*
X5663Y-7323D01*
X5685Y-7290D01*
X5693Y-7251D01*
Y-7167D01*
X5743Y-7140D01*
X5760Y-7151D01*
D02*
G37*
G36*
X175Y-6959D02*
X257Y-7022D01*
X354Y-7062D01*
X457Y-7076D01*
X560Y-7062D01*
X656Y-7022D01*
X657Y-7021D01*
X917Y-7282D01*
X951Y-7304D01*
X990Y-7312D01*
X1202D01*
X1219Y-7362D01*
X1175Y-7395D01*
X1112Y-7478D01*
X1072Y-7574D01*
X1058Y-7677D01*
X1072Y-7780D01*
X1112Y-7876D01*
X1175Y-7959D01*
X1199Y-7977D01*
X1198Y-8038D01*
X1197Y-8039D01*
X748Y-8488D01*
X726Y-8521D01*
X718Y-8560D01*
Y-9971D01*
X709Y-9978D01*
X641Y-9967D01*
X632Y-9952D01*
X572Y-9912D01*
X502Y-9898D01*
X432Y-9912D01*
X372Y-9952D01*
X332Y-10012D01*
X318Y-10082D01*
X332Y-10152D01*
X372Y-10212D01*
X432Y-10252D01*
X502Y-10266D01*
X572Y-10252D01*
X632Y-10212D01*
X641Y-10197D01*
X709Y-10186D01*
X718Y-10193D01*
Y-10778D01*
X440Y-11056D01*
X418Y-11089D01*
X410Y-11128D01*
Y-11632D01*
X264D01*
Y-12226D01*
X410D01*
Y-12884D01*
X370Y-12910D01*
X330Y-12970D01*
X316Y-13040D01*
X323Y-13073D01*
X243Y-13153D01*
X221Y-13186D01*
X213Y-13225D01*
Y-14895D01*
X221Y-14934D01*
X243Y-14967D01*
X798Y-15522D01*
X831Y-15544D01*
X870Y-15552D01*
X3915D01*
Y-16498D01*
X7817D01*
Y-16440D01*
X7854Y-16408D01*
X7867Y-16408D01*
X8139D01*
X7996Y-16266D01*
X8067Y-16195D01*
X8209Y-16338D01*
X8209Y-15980D01*
X8259Y-15959D01*
X8295Y-15982D01*
Y-16478D01*
X8441D01*
Y-16493D01*
X8449Y-16532D01*
X8471Y-16565D01*
X8692Y-16786D01*
X8673Y-16832D01*
X819D01*
X97Y-16110D01*
Y-7788D01*
X147Y-7778D01*
X173Y-7841D01*
X194Y-7869D01*
X386Y-7677D01*
X194Y-7485D01*
X173Y-7513D01*
X147Y-7576D01*
X97Y-7566D01*
Y-6939D01*
X147Y-6922D01*
X175Y-6959D01*
D02*
G37*
G36*
X9508Y-6070D02*
Y-9801D01*
X9011Y-10298D01*
X8913D01*
X8881Y-10292D01*
X8869D01*
X8835Y-10242D01*
X8844Y-10197D01*
X8830Y-10127D01*
X8811Y-10098D01*
X8830Y-10070D01*
X8844Y-10000D01*
X8830Y-9930D01*
X8811Y-9902D01*
X8830Y-9873D01*
X8844Y-9803D01*
X8830Y-9733D01*
X8811Y-9705D01*
X8830Y-9676D01*
X8844Y-9606D01*
X8830Y-9536D01*
X8791Y-9477D01*
X8761Y-9457D01*
X8764Y-9452D01*
X8773Y-9409D01*
X8764Y-9367D01*
X8761Y-9362D01*
X8791Y-9342D01*
X8809Y-9315D01*
X8912D01*
X8941Y-9359D01*
X9014Y-9407D01*
X9100Y-9424D01*
X9186Y-9407D01*
X9259Y-9359D01*
X9307Y-9286D01*
X9324Y-9200D01*
X9307Y-9114D01*
X9259Y-9041D01*
X9186Y-8993D01*
X9100Y-8976D01*
X9014Y-8993D01*
X8941Y-9041D01*
X8911Y-9087D01*
X8873Y-9087D01*
X8839Y-9043D01*
X8844Y-9016D01*
X8830Y-8946D01*
X8811Y-8917D01*
X8830Y-8889D01*
X8844Y-8819D01*
X8830Y-8749D01*
X8830Y-8749D01*
X8836Y-8737D01*
X8839Y-8736D01*
X8892Y-8737D01*
X8920Y-8780D01*
X8980Y-8820D01*
X9050Y-8834D01*
X9120Y-8820D01*
X9180Y-8780D01*
X9220Y-8720D01*
X9234Y-8650D01*
X9220Y-8580D01*
X9180Y-8520D01*
X9120Y-8480D01*
X9050Y-8466D01*
X9017Y-8473D01*
X8924Y-8380D01*
X8945Y-8330D01*
X9023D01*
X9037Y-8353D01*
X9094Y-8390D01*
X9160Y-8403D01*
X9226Y-8390D01*
X9283Y-8353D01*
X9320Y-8296D01*
X9333Y-8230D01*
X9320Y-8164D01*
X9283Y-8107D01*
X9226Y-8070D01*
X9160Y-8057D01*
X9094Y-8070D01*
X9059Y-8093D01*
X9053Y-8092D01*
X9037Y-8037D01*
X9422Y-7652D01*
X9444Y-7619D01*
X9452Y-7580D01*
Y-6048D01*
X9458Y-6043D01*
X9508Y-6070D01*
D02*
G37*
G36*
X10124Y-8020D02*
X10190Y-8033D01*
X10196Y-8032D01*
X10235Y-8064D01*
Y-8098D01*
X10579D01*
X10589Y-8098D01*
X10603Y-8119D01*
X10580Y-8167D01*
X10577Y-8169D01*
X10376D01*
X10498Y-8292D01*
X10443Y-8347D01*
X10498Y-8402D01*
X10376Y-8525D01*
X10621Y-8525D01*
X10625Y-8546D01*
X10629Y-8595D01*
X10629Y-8595D01*
X10625Y-8644D01*
X10621Y-8665D01*
X10579Y-8665D01*
X10376D01*
X10498Y-8788D01*
X10443Y-8843D01*
X10498Y-8898D01*
X10376Y-9021D01*
X10577Y-9021D01*
X10603Y-9071D01*
X10589Y-9092D01*
X10579Y-9092D01*
X10245D01*
Y-9164D01*
X10230Y-9177D01*
X10164Y-9190D01*
X10122Y-9218D01*
X10072Y-9197D01*
Y-8039D01*
X10116Y-8015D01*
X10124Y-8020D01*
D02*
G37*
G36*
X11697Y-7305D02*
X11728Y-7343D01*
X11727Y-7350D01*
X11740Y-7416D01*
X11777Y-7473D01*
X11834Y-7510D01*
X11900Y-7523D01*
X11925Y-7544D01*
Y-7598D01*
X12270D01*
X12280Y-7599D01*
X12295Y-7622D01*
X12269Y-7672D01*
X12066D01*
X12189Y-7795D01*
X12133Y-7850D01*
X12189Y-7905D01*
X12066Y-8028D01*
X12311Y-8028D01*
X12319Y-8075D01*
Y-8098D01*
X12425D01*
Y-8151D01*
X12319D01*
Y-8174D01*
X12311Y-8221D01*
X12269Y-8221D01*
X12066D01*
X12189Y-8344D01*
X12133Y-8399D01*
X12189Y-8454D01*
X12066Y-8577D01*
X12311Y-8577D01*
X12315Y-8598D01*
X12319Y-8647D01*
X12319Y-8667D01*
X12315Y-8715D01*
X12311Y-8737D01*
X12269Y-8737D01*
X12066D01*
X12189Y-8860D01*
X12133Y-8915D01*
X12189Y-8970D01*
X12066Y-9093D01*
X12306Y-9093D01*
X12318Y-9140D01*
X12314Y-9165D01*
X12277Y-9182D01*
X12066D01*
X12189Y-9305D01*
X12133Y-9360D01*
X12189Y-9415D01*
X12066Y-9538D01*
X12261Y-9538D01*
X12286Y-9588D01*
X12275Y-9602D01*
X11925D01*
Y-9638D01*
X11890Y-9667D01*
X11824Y-9680D01*
X11767Y-9717D01*
X11730Y-9774D01*
X11717Y-9840D01*
X11728Y-9896D01*
X11694Y-9930D01*
X11463D01*
X11463Y-9930D01*
X11420Y-9938D01*
X11384Y-9962D01*
X11152Y-10194D01*
X11128Y-10230D01*
X11120Y-10273D01*
X11120Y-10273D01*
Y-11201D01*
X11120Y-11201D01*
X11128Y-11244D01*
X11152Y-11280D01*
X12010Y-12137D01*
Y-12521D01*
X12010Y-12521D01*
X12018Y-12564D01*
X12042Y-12600D01*
X12478Y-13036D01*
Y-13330D01*
X12428Y-13335D01*
X12423Y-13307D01*
X12399Y-13271D01*
X12399Y-13271D01*
X11832Y-12704D01*
Y-12304D01*
X11832Y-12304D01*
X11823Y-12261D01*
X11799Y-12225D01*
X10942Y-11368D01*
Y-10126D01*
X11548Y-9520D01*
X11548Y-9520D01*
X11572Y-9484D01*
X11580Y-9441D01*
X11580Y-9441D01*
Y-7366D01*
X11644Y-7303D01*
X11697Y-7305D01*
D02*
G37*
G36*
X4206Y-10784D02*
X4207Y-10787D01*
X4192Y-10849D01*
X4160Y-10870D01*
X4120Y-10930D01*
X4106Y-11000D01*
X4120Y-11070D01*
X4141Y-11100D01*
X4150Y-11150D01*
X4113Y-11206D01*
X4101Y-11217D01*
X4064Y-11233D01*
X4060Y-11230D01*
X3990Y-11216D01*
X3920Y-11230D01*
X3860Y-11270D01*
X3820Y-11330D01*
X3806Y-11400D01*
X3820Y-11470D01*
X3860Y-11530D01*
X3920Y-11570D01*
X3990Y-11584D01*
X4023Y-11577D01*
X4111Y-11665D01*
Y-12076D01*
X4061Y-12110D01*
X4016Y-12101D01*
X3946Y-12115D01*
X3917Y-12134D01*
X3889Y-12115D01*
X3819Y-12101D01*
X3749Y-12115D01*
X3720Y-12134D01*
X3692Y-12115D01*
X3622Y-12101D01*
X3552Y-12115D01*
X3524Y-12134D01*
X3495Y-12115D01*
X3427Y-12101D01*
X3423Y-12095D01*
X3410Y-12053D01*
X3460Y-12020D01*
X3500Y-11960D01*
X3514Y-11890D01*
X3500Y-11820D01*
X3460Y-11760D01*
X3400Y-11720D01*
X3330Y-11706D01*
X3260Y-11720D01*
X3200Y-11760D01*
X3160Y-11820D01*
X3146Y-11890D01*
X3160Y-11960D01*
X3200Y-12020D01*
X3260Y-12060D01*
X3328Y-12073D01*
X3332Y-12080D01*
X3345Y-12121D01*
X3296Y-12154D01*
X3276Y-12184D01*
X3271Y-12181D01*
X3228Y-12172D01*
X3186Y-12181D01*
X3181Y-12184D01*
X3161Y-12154D01*
X3101Y-12115D01*
X3031Y-12101D01*
X2962Y-12115D01*
X2902Y-12154D01*
X2863Y-12214D01*
X2849Y-12283D01*
Y-12396D01*
X2799Y-12423D01*
X2780Y-12410D01*
X2710Y-12396D01*
X2640Y-12410D01*
X2580Y-12450D01*
X2573Y-12461D01*
X2523Y-12446D01*
Y-12151D01*
X2717D01*
X2786Y-12137D01*
X2846Y-12098D01*
X2885Y-12038D01*
X2899Y-11968D01*
X2885Y-11899D01*
X2866Y-11870D01*
X2885Y-11842D01*
X2899Y-11772D01*
X2885Y-11702D01*
X2866Y-11673D01*
X2885Y-11645D01*
X2899Y-11575D01*
X2885Y-11505D01*
X2866Y-11476D01*
X2885Y-11448D01*
X2899Y-11378D01*
X2885Y-11308D01*
X2866Y-11280D01*
X2885Y-11251D01*
X2899Y-11181D01*
X2885Y-11111D01*
X2866Y-11083D01*
X2885Y-11054D01*
X2899Y-10984D01*
X2885Y-10914D01*
X2866Y-10886D01*
X2885Y-10857D01*
X2888Y-10841D01*
X2950Y-10854D01*
X3020Y-10840D01*
X3080Y-10800D01*
X3098Y-10772D01*
X4198D01*
X4206Y-10784D01*
D02*
G37*
G36*
X10164Y-9510D02*
X10230Y-9523D01*
X10245Y-9536D01*
Y-9588D01*
X10903D01*
X10922Y-9634D01*
X10612Y-9944D01*
X10588Y-9980D01*
X10580Y-10023D01*
X10580Y-10023D01*
Y-11471D01*
X10580Y-11471D01*
X10588Y-11514D01*
X10612Y-11550D01*
X11470Y-12407D01*
Y-12811D01*
X11470Y-12811D01*
X11478Y-12854D01*
X11502Y-12890D01*
X11987Y-13374D01*
X11968Y-13421D01*
X11516D01*
X11461Y-13431D01*
X11415Y-13462D01*
X11384Y-13508D01*
X11373Y-13563D01*
Y-13642D01*
X11384Y-13696D01*
X11387Y-13701D01*
X11384Y-13705D01*
X11373Y-13760D01*
Y-13839D01*
X11384Y-13893D01*
X11415Y-13939D01*
X11445Y-13959D01*
Y-14033D01*
X11415Y-14053D01*
X11384Y-14099D01*
X11373Y-14153D01*
Y-14232D01*
X11384Y-14287D01*
X11387Y-14291D01*
X11384Y-14296D01*
X11373Y-14350D01*
Y-14429D01*
X11384Y-14484D01*
X11387Y-14488D01*
X11384Y-14493D01*
X11373Y-14547D01*
Y-14626D01*
X11384Y-14681D01*
X11415Y-14727D01*
X11445Y-14747D01*
Y-14820D01*
X11415Y-14840D01*
X11389Y-14878D01*
X10690D01*
X10651Y-14886D01*
X10618Y-14908D01*
X10562Y-14964D01*
X10515Y-14945D01*
Y-14503D01*
X10508Y-14464D01*
X10485Y-14431D01*
X10222Y-14168D01*
X10189Y-14146D01*
X10150Y-14138D01*
X10127D01*
X10107Y-14111D01*
X10116Y-14080D01*
X10127Y-14059D01*
X10160Y-14053D01*
X10194Y-14031D01*
X10342Y-13882D01*
X10364Y-13849D01*
X10372Y-13810D01*
Y-13808D01*
X10400Y-13790D01*
X10440Y-13730D01*
X10454Y-13660D01*
X10440Y-13590D01*
X10400Y-13530D01*
X10340Y-13490D01*
X10270Y-13476D01*
X10264Y-13428D01*
X10311Y-13419D01*
X10315Y-13416D01*
X10319Y-13419D01*
X10374Y-13430D01*
X10453D01*
X10507Y-13419D01*
X10512Y-13416D01*
X10516Y-13419D01*
X10571Y-13430D01*
X10650D01*
X10704Y-13419D01*
X10709Y-13416D01*
X10713Y-13419D01*
X10768Y-13430D01*
X10847D01*
X10901Y-13419D01*
X10906Y-13416D01*
X10910Y-13419D01*
X10964Y-13430D01*
X11043D01*
X11098Y-13419D01*
X11102Y-13416D01*
X11107Y-13419D01*
X11161Y-13430D01*
X11240D01*
X11295Y-13419D01*
X11341Y-13388D01*
X11372Y-13342D01*
X11383Y-13288D01*
Y-12677D01*
X11372Y-12623D01*
X11341Y-12576D01*
X11295Y-12546D01*
X11240Y-12535D01*
X11161D01*
X11107Y-12546D01*
X11102Y-12549D01*
X11098Y-12546D01*
X11043Y-12535D01*
X10964D01*
X10910Y-12546D01*
X10906Y-12549D01*
X10901Y-12546D01*
X10847Y-12535D01*
X10768D01*
X10713Y-12546D01*
X10709Y-12549D01*
X10704Y-12546D01*
X10650Y-12535D01*
X10571D01*
X10516Y-12546D01*
X10512Y-12549D01*
X10507Y-12546D01*
X10453Y-12535D01*
X10374D01*
X10319Y-12546D01*
X10315Y-12549D01*
X10311Y-12546D01*
X10256Y-12535D01*
X10177D01*
X10123Y-12546D01*
X10118Y-12549D01*
X10114Y-12546D01*
X10059Y-12535D01*
X9980D01*
X9926Y-12546D01*
X9921Y-12549D01*
X9917Y-12546D01*
X9862Y-12535D01*
X9783D01*
X9771Y-12537D01*
X9722Y-12537D01*
X9699Y-12505D01*
X9698Y-12504D01*
X9637Y-12443D01*
X9657Y-12393D01*
X9658Y-12393D01*
Y-12393D01*
X9662Y-12393D01*
X9910D01*
X9768Y-12250D01*
X9839Y-12179D01*
X9981Y-12322D01*
Y-12009D01*
X9839Y-12151D01*
X9803Y-12116D01*
X9768Y-12151D01*
X9625Y-12009D01*
X9625Y-12356D01*
Y-12359D01*
D01*
X9625Y-12360D01*
X9620Y-12363D01*
X9578Y-12380D01*
X9563Y-12369D01*
X9562Y-12368D01*
X9557Y-12365D01*
X9539Y-12352D01*
Y-11868D01*
X9297D01*
X9259Y-11830D01*
X9279Y-11780D01*
X9330Y-11770D01*
X9390Y-11730D01*
X9430Y-11670D01*
X9444Y-11600D01*
X9430Y-11530D01*
X9390Y-11470D01*
X9330Y-11430D01*
X9260Y-11416D01*
X9190Y-11430D01*
X9130Y-11470D01*
X9118Y-11488D01*
X9003D01*
X8978Y-11471D01*
X8935Y-11463D01*
X8935Y-11463D01*
X8876D01*
X8837Y-11413D01*
X8844Y-11378D01*
X8835Y-11333D01*
X8841Y-11325D01*
X8891Y-11311D01*
X8951Y-11351D01*
X9021Y-11365D01*
X9091Y-11351D01*
X9151Y-11311D01*
X9191Y-11251D01*
X9205Y-11181D01*
X9196Y-11136D01*
X9230Y-11086D01*
X9540D01*
X9579Y-11078D01*
X9612Y-11056D01*
X10042Y-10626D01*
X10064Y-10593D01*
X10072Y-10554D01*
Y-9503D01*
X10122Y-9482D01*
X10164Y-9510D01*
D02*
G37*
G36*
X8008Y-12879D02*
Y-13018D01*
X7688Y-13338D01*
X7666Y-13371D01*
X7658Y-13410D01*
Y-14470D01*
X7666Y-14509D01*
X7688Y-14542D01*
X7805Y-14659D01*
X7838Y-14681D01*
X7875Y-14688D01*
X7870Y-14736D01*
X7800Y-14750D01*
X7740Y-14790D01*
X7700Y-14850D01*
X7686Y-14920D01*
X7700Y-14990D01*
X7731Y-15036D01*
X7692Y-15068D01*
X6874Y-14249D01*
Y-14146D01*
X7000D01*
Y-13650D01*
X6150D01*
Y-13765D01*
X5593D01*
X5403Y-13575D01*
X5390Y-13510D01*
X5350Y-13450D01*
X5290Y-13410D01*
X5220Y-13396D01*
X5214Y-13398D01*
X5183Y-13353D01*
X5190Y-13342D01*
X6340D01*
X6379Y-13334D01*
X6412Y-13312D01*
X6647Y-13077D01*
X6669Y-13044D01*
X6720Y-13046D01*
X6772Y-13057D01*
X6842Y-13043D01*
X6870Y-13024D01*
X6899Y-13043D01*
X6969Y-13057D01*
X7038Y-13043D01*
X7067Y-13024D01*
X7095Y-13043D01*
X7165Y-13057D01*
X7235Y-13043D01*
X7264Y-13024D01*
X7292Y-13043D01*
X7362Y-13057D01*
X7432Y-13043D01*
X7461Y-13024D01*
X7489Y-13043D01*
X7559Y-13057D01*
X7629Y-13043D01*
X7657Y-13024D01*
X7686Y-13043D01*
X7756Y-13057D01*
X7826Y-13043D01*
X7885Y-13003D01*
X7925Y-12944D01*
X7936Y-12888D01*
X7970Y-12868D01*
X7988Y-12865D01*
X8008Y-12879D01*
D02*
G37*
G36*
X4733Y-13043D02*
X4803Y-13057D01*
X4873Y-13043D01*
X4902Y-13081D01*
X4902Y-13084D01*
X4432Y-13553D01*
X4400Y-13550D01*
X4340Y-13510D01*
X4270Y-13496D01*
X4200Y-13510D01*
X4168Y-13532D01*
X4118Y-13505D01*
Y-13082D01*
X4168Y-13048D01*
X4213Y-13057D01*
X4282Y-13043D01*
X4311Y-13024D01*
X4340Y-13043D01*
X4409Y-13057D01*
X4479Y-13043D01*
X4508Y-13024D01*
X4536Y-13043D01*
X4606Y-13057D01*
X4676Y-13043D01*
X4705Y-13024D01*
X4733Y-13043D01*
D02*
G37*
G36*
X1280Y-10591D02*
X1298Y-10634D01*
Y-12370D01*
X1306Y-12409D01*
X1328Y-12442D01*
X1878Y-12992D01*
Y-13864D01*
X1828Y-13876D01*
X1775Y-13777D01*
X1686Y-13668D01*
X1578Y-13580D01*
X1454Y-13514D01*
X1320Y-13473D01*
X1181Y-13459D01*
X1042Y-13473D01*
X908Y-13514D01*
X784Y-13580D01*
X676Y-13668D01*
X587Y-13777D01*
X521Y-13900D01*
X481Y-14034D01*
X467Y-14173D01*
X481Y-14313D01*
X521Y-14446D01*
X587Y-14570D01*
X676Y-14678D01*
X784Y-14767D01*
X908Y-14833D01*
X1042Y-14873D01*
X1181Y-14887D01*
X1320Y-14873D01*
X1454Y-14833D01*
X1578Y-14767D01*
X1686Y-14678D01*
X1775Y-14570D01*
X1828Y-14470D01*
X1878Y-14483D01*
Y-14730D01*
X1886Y-14769D01*
X1908Y-14802D01*
X2148Y-15042D01*
X2181Y-15064D01*
X2220Y-15072D01*
X2878D01*
X3104Y-15298D01*
X3083Y-15348D01*
X912D01*
X417Y-14853D01*
Y-13267D01*
X467Y-13217D01*
X500Y-13224D01*
X570Y-13210D01*
X630Y-13170D01*
X670Y-13110D01*
X684Y-13040D01*
X670Y-12970D01*
X630Y-12910D01*
X614Y-12900D01*
Y-12226D01*
X760D01*
Y-11632D01*
X614D01*
Y-11170D01*
X892Y-10892D01*
X914Y-10859D01*
X922Y-10820D01*
Y-10640D01*
X924Y-10591D01*
X972Y-10591D01*
X1280Y-10591D01*
D02*
G37*
G36*
X2562Y-12682D02*
X2580Y-12710D01*
X2640Y-12750D01*
X2710Y-12764D01*
X2780Y-12750D01*
X2799Y-12737D01*
X2849Y-12764D01*
Y-12874D01*
X2863Y-12944D01*
X2902Y-13003D01*
X2962Y-13043D01*
X3031Y-13057D01*
X3101Y-13043D01*
X3161Y-13003D01*
X3181Y-12973D01*
X3186Y-12977D01*
X3228Y-12985D01*
X3271Y-12977D01*
X3276Y-12973D01*
X3296Y-13003D01*
X3323Y-13021D01*
Y-13163D01*
X3094D01*
Y-13757D01*
X3525D01*
X3528Y-13770D01*
X3550Y-13804D01*
X3575Y-13829D01*
X3553Y-13874D01*
X3543Y-13872D01*
X3435Y-13887D01*
X3334Y-13929D01*
X3247Y-13995D01*
X3200Y-14056D01*
X3196Y-14058D01*
X3141Y-14051D01*
X3132Y-14038D01*
X2928Y-13834D01*
X2895Y-13812D01*
X2856Y-13804D01*
X2738D01*
X2671Y-13737D01*
X2692Y-13687D01*
X2937D01*
X2795Y-13545D01*
X2865Y-13474D01*
X3008Y-13616D01*
Y-13304D01*
X2865Y-13446D01*
X2830Y-13411D01*
X2795Y-13446D01*
X2652Y-13304D01*
Y-13647D01*
X2602Y-13668D01*
X2322Y-13388D01*
Y-12872D01*
X2493Y-12701D01*
X2504Y-12685D01*
X2556Y-12680D01*
X2562Y-12682D01*
D02*
G37*
G36*
X8823Y-12603D02*
X8859Y-12652D01*
X8854Y-12677D01*
Y-13288D01*
X8864Y-13342D01*
X8895Y-13388D01*
X8941Y-13419D01*
X8996Y-13430D01*
X9075D01*
X9080Y-13429D01*
X9130Y-13470D01*
Y-13512D01*
X9138Y-13551D01*
X9160Y-13584D01*
X9318Y-13742D01*
X9351Y-13764D01*
X9390Y-13772D01*
X9829D01*
X9846Y-13794D01*
X9850Y-13800D01*
X9852Y-13801D01*
X9859Y-13811D01*
X9845Y-13857D01*
X9829D01*
X9790Y-13864D01*
X9756Y-13886D01*
X9498Y-14145D01*
X9476Y-14178D01*
X9468Y-14217D01*
Y-14994D01*
X9387Y-15075D01*
X8903D01*
X8862Y-15025D01*
X8863Y-15020D01*
Y-14941D01*
X8852Y-14886D01*
X8849Y-14882D01*
X8852Y-14877D01*
X8863Y-14823D01*
Y-14744D01*
X8852Y-14689D01*
X8849Y-14685D01*
X8852Y-14681D01*
X8863Y-14626D01*
Y-14547D01*
X8852Y-14493D01*
X8849Y-14488D01*
X8852Y-14484D01*
X8863Y-14429D01*
Y-14350D01*
X8852Y-14296D01*
X8849Y-14291D01*
X8852Y-14287D01*
X8863Y-14232D01*
Y-14153D01*
X8852Y-14099D01*
X8849Y-14094D01*
X8852Y-14090D01*
X8863Y-14036D01*
Y-13957D01*
X8852Y-13902D01*
X8821Y-13856D01*
X8792Y-13836D01*
Y-13762D01*
X8821Y-13742D01*
X8852Y-13696D01*
X8863Y-13642D01*
Y-13563D01*
X8852Y-13508D01*
X8821Y-13462D01*
X8775Y-13431D01*
X8721Y-13421D01*
X8662D01*
Y-13362D01*
X8680Y-13350D01*
X8720Y-13290D01*
X8734Y-13220D01*
X8720Y-13150D01*
X8680Y-13090D01*
X8620Y-13050D01*
X8557Y-13038D01*
X8544Y-13015D01*
X8536Y-12988D01*
X8582Y-12942D01*
X8604Y-12909D01*
X8612Y-12870D01*
Y-12848D01*
X8640Y-12830D01*
X8680Y-12770D01*
X8694Y-12700D01*
X8684Y-12652D01*
X8717Y-12602D01*
X8821D01*
X8823Y-12603D01*
D02*
G37*
G36*
X5047Y-13528D02*
X5036Y-13580D01*
X5050Y-13650D01*
X5090Y-13710D01*
X5150Y-13750D01*
X5215Y-13763D01*
X5444Y-13991D01*
X5487Y-14020D01*
X5538Y-14030D01*
X6150D01*
Y-14146D01*
X6670D01*
Y-14292D01*
X6677Y-14331D01*
X6700Y-14364D01*
X7782Y-15446D01*
X7803Y-15460D01*
X7788Y-15510D01*
X5250D01*
X5234Y-15490D01*
X5220Y-15420D01*
X5180Y-15360D01*
X5120Y-15320D01*
X5050Y-15306D01*
X4980Y-15320D01*
X4920Y-15360D01*
X4880Y-15420D01*
X4866Y-15490D01*
X4850Y-15510D01*
X4276D01*
X4254Y-15460D01*
X4272Y-15440D01*
X4290Y-15444D01*
X4360Y-15430D01*
X4420Y-15390D01*
X4460Y-15330D01*
X4474Y-15260D01*
X4460Y-15190D01*
X4449Y-15175D01*
X4470Y-15120D01*
X4530Y-15080D01*
X4570Y-15020D01*
X4584Y-14950D01*
X4570Y-14880D01*
X4530Y-14820D01*
X4505Y-14804D01*
X4525Y-14757D01*
X4551Y-14762D01*
X4802D01*
X4820Y-14790D01*
X4880Y-14830D01*
X4950Y-14844D01*
X5020Y-14830D01*
X5080Y-14790D01*
X5120Y-14730D01*
X5134Y-14660D01*
X5122Y-14602D01*
X5150Y-14552D01*
X5177D01*
X5226Y-14556D01*
Y-15137D01*
X5319Y-15043D01*
X5390Y-15114D01*
X5296Y-15207D01*
X5411D01*
Y-15277D01*
X6577D01*
Y-14486D01*
X6221D01*
X6216Y-14461D01*
X6194Y-14428D01*
X6024Y-14258D01*
X5991Y-14236D01*
X5952Y-14228D01*
X4602D01*
X4494Y-14120D01*
X4510Y-14065D01*
X4540Y-14060D01*
X4600Y-14020D01*
X4640Y-13960D01*
X4654Y-13890D01*
X4647Y-13857D01*
X5001Y-13503D01*
X5047Y-13528D01*
D02*
G37*
G36*
X11375Y-15525D02*
X11373Y-15531D01*
Y-15610D01*
X11384Y-15665D01*
X11387Y-15669D01*
X11384Y-15674D01*
X11373Y-15728D01*
Y-15807D01*
X11384Y-15862D01*
X11415Y-15908D01*
X11461Y-15939D01*
X11516Y-15949D01*
X11522D01*
Y-16351D01*
X11545D01*
X11592Y-16359D01*
Y-16675D01*
X11556Y-16708D01*
X11395D01*
X11383Y-16693D01*
Y-16082D01*
X11372Y-16028D01*
X11341Y-15982D01*
X11295Y-15951D01*
X11240Y-15940D01*
X11161D01*
X11107Y-15951D01*
X11102Y-15954D01*
X11098Y-15951D01*
X11043Y-15940D01*
X10964D01*
X10910Y-15951D01*
X10906Y-15954D01*
X10901Y-15951D01*
X10847Y-15940D01*
X10768D01*
X10713Y-15951D01*
X10709Y-15954D01*
X10704Y-15951D01*
X10650Y-15940D01*
X10571D01*
X10565Y-15941D01*
X10515Y-15900D01*
Y-15676D01*
X10565Y-15653D01*
X10578Y-15663D01*
X10576Y-15670D01*
X10590Y-15740D01*
X10630Y-15800D01*
X10690Y-15840D01*
X10760Y-15854D01*
X10830Y-15840D01*
X10890Y-15800D01*
X10930Y-15740D01*
X10944Y-15670D01*
X10930Y-15600D01*
X10890Y-15540D01*
X10902Y-15502D01*
X10955Y-15503D01*
X10956Y-15504D01*
X11016Y-15544D01*
X11086Y-15558D01*
X11156Y-15544D01*
X11216Y-15504D01*
X11228Y-15486D01*
X11343D01*
X11375Y-15525D01*
D02*
G37*
G36*
X8920Y-15450D02*
X8960Y-15510D01*
X9020Y-15550D01*
X9090Y-15564D01*
X9120Y-15557D01*
X9327Y-15764D01*
Y-15956D01*
X9289Y-15982D01*
X9269Y-16012D01*
X9193D01*
X9166Y-16017D01*
X9134Y-16029D01*
X9102Y-16017D01*
X9075Y-16012D01*
X8996D01*
X8996Y-16012D01*
X9071Y-16087D01*
X9000Y-16157D01*
X8925Y-16082D01*
X8925Y-16082D01*
Y-16660D01*
X8875Y-16681D01*
X8719Y-16524D01*
X8738Y-16478D01*
X8791D01*
Y-15928D01*
X8821Y-15908D01*
X8852Y-15862D01*
X8863Y-15807D01*
Y-15728D01*
X8852Y-15674D01*
X8849Y-15669D01*
X8852Y-15665D01*
X8863Y-15610D01*
Y-15531D01*
X8852Y-15477D01*
X8849Y-15472D01*
X8852Y-15468D01*
X8863Y-15414D01*
X8913Y-15412D01*
X8920Y-15450D01*
D02*
G37*
G36*
X12450Y-15897D02*
Y-16091D01*
X12593Y-15949D01*
X12663Y-16020D01*
X12521Y-16162D01*
X12775D01*
X12795Y-16208D01*
X12173Y-16830D01*
X12134Y-16825D01*
X12115Y-16779D01*
X12162Y-16732D01*
X12184Y-16699D01*
X12192Y-16660D01*
Y-16122D01*
X12375Y-15939D01*
X12397Y-15906D01*
X12400Y-15893D01*
X12450Y-15897D01*
D02*
G37*
%LPC*%
G36*
X8892Y-6484D02*
X8888Y-6491D01*
X8876Y-6550D01*
X8888Y-6609D01*
X8892Y-6616D01*
X8958Y-6550D01*
X8892Y-6484D01*
D02*
G37*
G36*
X11460Y-606D02*
X11390Y-620D01*
X11330Y-660D01*
X11290Y-720D01*
X11276Y-790D01*
X11290Y-860D01*
X11330Y-920D01*
X11390Y-960D01*
X11460Y-974D01*
X11530Y-960D01*
X11590Y-920D01*
X11630Y-860D01*
X11644Y-790D01*
X11630Y-720D01*
X11590Y-660D01*
X11530Y-620D01*
X11460Y-606D01*
D02*
G37*
G36*
X5934Y-3907D02*
X5720D01*
X5827Y-4014D01*
X5934Y-3907D01*
D02*
G37*
G36*
X5649Y-3977D02*
Y-4290D01*
X5791Y-4148D01*
X5827Y-4183D01*
X5862Y-4148D01*
X6005Y-4290D01*
Y-3977D01*
X5862Y-4120D01*
X5827Y-4085D01*
X5791Y-4120D01*
X5649Y-3977D01*
D02*
G37*
G36*
X5827Y-4254D02*
X5720Y-4361D01*
X5934D01*
X5827Y-4254D01*
D02*
G37*
G36*
X1276Y-5053D02*
X1206Y-5067D01*
X1146Y-5106D01*
X1107Y-5166D01*
X1093Y-5236D01*
X1107Y-5306D01*
X1146Y-5366D01*
X1206Y-5406D01*
X1276Y-5420D01*
X1346Y-5406D01*
X1406Y-5366D01*
X1446Y-5306D01*
X1460Y-5236D01*
X1446Y-5166D01*
X1406Y-5106D01*
X1346Y-5067D01*
X1276Y-5053D01*
D02*
G37*
G36*
X11995Y-6243D02*
Y-6457D01*
X12102Y-6350D01*
X11995Y-6243D01*
D02*
G37*
G36*
X457Y-7349D02*
X372Y-7361D01*
X293Y-7393D01*
X265Y-7415D01*
X457Y-7606D01*
X648Y-7415D01*
X621Y-7393D01*
X542Y-7361D01*
X457Y-7349D01*
D02*
G37*
G36*
X719Y-7485D02*
X527Y-7677D01*
X719Y-7869D01*
X741Y-7841D01*
X773Y-7762D01*
X785Y-7677D01*
X773Y-7592D01*
X741Y-7513D01*
X719Y-7485D01*
D02*
G37*
G36*
X457Y-7748D02*
X265Y-7940D01*
X293Y-7961D01*
X372Y-7994D01*
X457Y-8005D01*
X542Y-7994D01*
X621Y-7961D01*
X648Y-7940D01*
X457Y-7748D01*
D02*
G37*
G36*
X10305Y-8239D02*
Y-8454D01*
X10412Y-8347D01*
X10305Y-8239D01*
D02*
G37*
G36*
Y-8736D02*
Y-8951D01*
X10412Y-8843D01*
X10305Y-8736D01*
D02*
G37*
G36*
X11995Y-7743D02*
Y-7957D01*
X12102Y-7850D01*
X11995Y-7743D01*
D02*
G37*
G36*
Y-8291D02*
Y-8506D01*
X12102Y-8399D01*
X11995Y-8291D01*
D02*
G37*
G36*
Y-8808D02*
Y-9022D01*
X12102Y-8915D01*
X11995Y-8808D01*
D02*
G37*
G36*
Y-9253D02*
Y-9467D01*
X12102Y-9360D01*
X11995Y-9253D01*
D02*
G37*
G36*
X9910Y-11938D02*
X9696D01*
X9803Y-12045D01*
X9910Y-11938D01*
D02*
G37*
G36*
X11102Y-14147D02*
X11032Y-14161D01*
X10973Y-14201D01*
X10933Y-14260D01*
X10919Y-14331D01*
X10933Y-14401D01*
X10973Y-14460D01*
X11032Y-14500D01*
X11102Y-14514D01*
X11173Y-14500D01*
X11232Y-14460D01*
X11272Y-14401D01*
X11286Y-14331D01*
X11272Y-14260D01*
X11232Y-14201D01*
X11173Y-14161D01*
X11102Y-14147D01*
D02*
G37*
G36*
X1131Y-11702D02*
X916D01*
X1024Y-11809D01*
X1131Y-11702D01*
D02*
G37*
G36*
X846Y-11773D02*
Y-12086D01*
X988Y-11943D01*
X1024Y-11978D01*
X1059Y-11943D01*
X1202Y-12086D01*
Y-11773D01*
X1059Y-11915D01*
X1024Y-11880D01*
X988Y-11915D01*
X846Y-11773D01*
D02*
G37*
G36*
X1024Y-12049D02*
X916Y-12156D01*
X1131D01*
X1024Y-12049D01*
D02*
G37*
G36*
X2937Y-13233D02*
X2723D01*
X2830Y-13340D01*
X2937Y-13233D01*
D02*
G37*
%LPD*%
D11*
X12547Y-8657D02*
Y-5783D01*
X12550Y-5780D01*
X12547Y-11277D02*
Y-8657D01*
Y-11277D02*
X12550Y-11280D01*
D12*
X11077Y-6452D02*
Y-1611D01*
X10938Y-6457D02*
Y-1668D01*
X12224Y-14390D02*
X12729Y-13885D01*
X11732Y-14390D02*
X12224D01*
X11907Y-10347D02*
X12143D01*
X11900Y-10340D02*
X11907Y-10347D01*
X12729Y-13885D02*
Y-12933D01*
X12260Y-12464D02*
X12729Y-12933D01*
X12260Y-12464D02*
Y-12034D01*
X11370Y-11144D02*
X12260Y-12034D01*
X11370Y-11144D02*
Y-10330D01*
X11520Y-10180D01*
X11740D01*
X11900Y-10340D01*
X12225Y-14193D02*
X12590Y-13828D01*
X11732Y-14193D02*
X12225D01*
X11890Y-9840D02*
X12143D01*
X12153Y-9850D01*
X12590Y-13828D02*
Y-12990D01*
X12121Y-12521D02*
X12590Y-12990D01*
X12121Y-12521D02*
Y-12091D01*
X11231Y-11201D02*
X12121Y-12091D01*
X11231Y-11201D02*
Y-10273D01*
X11463Y-10041D01*
X11740D01*
X11890Y-9891D01*
Y-9840D01*
X11720Y-12750D02*
X12320Y-13350D01*
Y-13625D02*
Y-13350D01*
X12146Y-13799D02*
X12320Y-13625D01*
X11732Y-13799D02*
X12146D01*
X11900Y-7350D02*
X12153D01*
X12153Y-7350D01*
X11720Y-12750D02*
Y-12304D01*
X10830Y-11414D02*
X11720Y-12304D01*
X10830Y-11414D02*
Y-10080D01*
X11469Y-9441D01*
Y-7320D01*
X11609Y-7180D01*
X11770D01*
X11900Y-7310D01*
Y-7350D02*
Y-7310D01*
X12181Y-13567D02*
Y-13411D01*
X12146Y-13602D02*
X12181Y-13567D01*
X11732Y-13602D02*
X12146D01*
X11910Y-6850D02*
X12153D01*
X11910Y-6850D02*
X11910Y-6850D01*
X11581Y-12811D02*
Y-12361D01*
X10691Y-11471D02*
X11581Y-12361D01*
X10691Y-11471D02*
Y-10023D01*
X11330Y-9384D01*
Y-7263D01*
X11551Y-7041D01*
X11770D01*
X11910Y-6901D01*
Y-6850D01*
X11581Y-12811D02*
X12181Y-13411D01*
X7738Y-1493D02*
X7911Y-1320D01*
Y-883D01*
X8173Y-621D01*
X10087D01*
X11077Y-1611D01*
Y-6452D02*
X11147Y-6522D01*
Y-6713D02*
Y-6522D01*
X8050Y-1305D02*
X8238Y-1493D01*
X8050Y-1305D02*
Y-940D01*
X8230Y-760D01*
X10030D01*
X10938Y-1668D01*
X10860Y-6535D02*
X10938Y-6457D01*
X10860Y-6706D02*
Y-6535D01*
Y-6706D02*
X10867Y-6713D01*
X9144Y-3850D02*
X9404D01*
X8738Y-3127D02*
Y-2824D01*
Y-3127D02*
X8931Y-3320D01*
Y-3637D02*
Y-3320D01*
Y-3637D02*
X9144Y-3850D01*
X9404D02*
X10360Y-4806D01*
Y-5599D02*
Y-4806D01*
X10299Y-5660D02*
X10360Y-5599D01*
X9201Y-3711D02*
X9461D01*
X9238Y-3152D02*
Y-2824D01*
X9070Y-3320D02*
X9238Y-3152D01*
X9070Y-3580D02*
Y-3320D01*
Y-3580D02*
X9201Y-3711D01*
X9461D02*
X10499Y-4749D01*
Y-5599D02*
Y-4749D01*
Y-5599D02*
X10559Y-5660D01*
D15*
X12153Y-6337D02*
Y-6087D01*
X12162Y-6078D01*
X12153Y-9360D02*
Y-8650D01*
Y-7882D01*
X12330Y-16260D02*
X12606Y-15984D01*
X12677D01*
Y-14606D02*
X12756Y-14528D01*
X6614Y-7244D02*
X6772Y-7087D01*
Y-6634D01*
X1102Y-10898D02*
Y-10433D01*
X10925Y-14783D02*
X11732D01*
X10748Y-14606D02*
X10925Y-14783D01*
X10748Y-14606D02*
Y-14449D01*
X10965Y-13996D02*
X11732D01*
X10748Y-14213D02*
X10965Y-13996D01*
X10748Y-14449D02*
Y-14213D01*
X9040Y-15660D02*
X9080D01*
X9090Y-15670D01*
Y-15690D02*
Y-15670D01*
Y-15690D02*
X9232Y-15832D01*
Y-16299D02*
Y-15832D01*
X8802Y-16300D02*
X8850D01*
X8801Y-16299D02*
X8802Y-16300D01*
X11736Y-16610D02*
X11770Y-16576D01*
X9079Y-13799D02*
X9240Y-13960D01*
X8504Y-13799D02*
X9079D01*
X8040Y-7010D02*
Y-6830D01*
X7900Y-7150D02*
X8040Y-7010D01*
X7900Y-7350D02*
Y-7150D01*
Y-7350D02*
X7991Y-7441D01*
X8366D01*
X4803Y-7137D02*
Y-6634D01*
X4800Y-7140D02*
X4803Y-7137D01*
X8801Y-16299D02*
X9035D01*
X9803Y-12165D02*
X10079D01*
X11440Y-16610D02*
X11736D01*
X12660Y-14432D02*
X12756Y-14528D01*
X12660Y-14432D02*
Y-14360D01*
Y-14340D01*
X10197Y-8843D02*
X10463D01*
X10190Y-8850D02*
X10197Y-8843D01*
X10463D02*
Y-8347D01*
X8040Y-6830D02*
X8320Y-6550D01*
X9029D01*
X8366Y-9410D02*
Y-9409D01*
X9280Y-9410D02*
X9340Y-9350D01*
Y-8840D01*
X8366Y-9410D02*
X9280D01*
X-7400Y-7235D02*
Y-7835D01*
X-7101D01*
X-7001Y-7735D01*
Y-7635D01*
X-7101Y-7535D01*
X-7400D01*
X-7101D01*
X-7001Y-7435D01*
Y-7335D01*
X-7101Y-7235D01*
X-7400D01*
X-6701Y-7835D02*
X-6501D01*
X-6401Y-7735D01*
Y-7535D01*
X-6501Y-7435D01*
X-6701D01*
X-6801Y-7535D01*
Y-7735D01*
X-6701Y-7835D01*
X-6101Y-7335D02*
Y-7435D01*
X-6201D01*
X-6001D01*
X-6101D01*
Y-7735D01*
X-6001Y-7835D01*
X-5101Y-7235D02*
Y-7835D01*
X-4701D01*
X-4401Y-7435D02*
X-4202D01*
X-4102Y-7535D01*
Y-7835D01*
X-4401D01*
X-4501Y-7735D01*
X-4401Y-7635D01*
X-4102D01*
X-3902Y-7435D02*
Y-7735D01*
X-3802Y-7835D01*
X-3502D01*
Y-7935D01*
X-3602Y-8035D01*
X-3702D01*
X-3502Y-7835D02*
Y-7435D01*
X-3002Y-7835D02*
X-3202D01*
X-3302Y-7735D01*
Y-7535D01*
X-3202Y-7435D01*
X-3002D01*
X-2902Y-7535D01*
Y-7635D01*
X-3302D01*
X-2702Y-7435D02*
Y-7835D01*
Y-7635D01*
X-2602Y-7535D01*
X-2502Y-7435D01*
X-2402D01*
X-7550Y-13960D02*
Y-13360D01*
X-7350Y-13560D01*
X-7151Y-13360D01*
Y-13960D01*
X-6951Y-13560D02*
Y-13860D01*
X-6851Y-13960D01*
X-6551D01*
Y-13560D01*
X-6351Y-13960D02*
X-6151D01*
X-6251D01*
Y-13360D01*
X-6351D01*
X-5751Y-13460D02*
Y-13560D01*
X-5851D01*
X-5651D01*
X-5751D01*
Y-13860D01*
X-5651Y-13960D01*
X-5351D02*
X-5151D01*
X-5251D01*
Y-13560D01*
X-5351D01*
X-4851Y-13960D02*
X-4651D01*
X-4751D01*
Y-13360D01*
X-4851D01*
X-4251Y-13560D02*
X-4052D01*
X-3952Y-13660D01*
Y-13960D01*
X-4251D01*
X-4351Y-13860D01*
X-4251Y-13760D01*
X-3952D01*
X-3752Y-13560D02*
Y-13860D01*
X-3652Y-13960D01*
X-3352D01*
Y-14060D01*
X-3452Y-14160D01*
X-3552D01*
X-3352Y-13960D02*
Y-13560D01*
X-2852Y-13960D02*
X-3052D01*
X-3152Y-13860D01*
Y-13660D01*
X-3052Y-13560D01*
X-2852D01*
X-2752Y-13660D01*
Y-13760D01*
X-3152D01*
X-2552Y-13560D02*
Y-13960D01*
Y-13760D01*
X-2452Y-13660D01*
X-2352Y-13560D01*
X-2252D01*
D16*
X6496Y-4134D02*
X6654Y-3976D01*
X6614Y-4016D02*
X6654Y-3976D01*
X6654D01*
X6339Y-4134D02*
X6496D01*
X5220Y-13580D02*
X5538Y-13898D01*
X6280D01*
X1738Y-3452D02*
Y-2793D01*
X1560Y-3630D02*
X1738Y-3452D01*
X1530Y-3630D02*
X1560D01*
D19*
X8366Y-7244D02*
X8735D01*
X9029Y-6950D01*
X11080Y-15380D02*
X11086Y-15374D01*
X8366Y-11968D02*
X8440Y-12042D01*
Y-12180D02*
Y-12042D01*
X11086Y-15374D02*
X11732D01*
X8504Y-13476D02*
X8550Y-13430D01*
Y-13220D01*
X8504Y-13602D02*
Y-13476D01*
X6575Y-6634D02*
Y-6105D01*
X5000Y-6634D02*
Y-6150D01*
X4016Y-6634D02*
Y-6136D01*
X7874Y-7638D02*
X8366D01*
X2711Y-12579D02*
X3031D01*
X2710Y-12580D02*
X2711Y-12579D01*
X2250Y-7240D02*
Y-7000D01*
Y-7240D02*
X2254Y-7244D01*
X2421D01*
X9605Y-15551D02*
X9606D01*
X9823Y-16299D02*
Y-15769D01*
X9567Y-15513D02*
X9605Y-15551D01*
X9823Y-15769D01*
X8366Y-11575D02*
X8935D01*
X8960Y-11600D02*
X9260D01*
X8935Y-11575D02*
X8960Y-11600D01*
X1991Y-7441D02*
X2421D01*
X1750Y-7200D02*
X1991Y-7441D01*
X1750Y-7200D02*
Y-7150D01*
X1024Y-12234D02*
Y-11929D01*
Y-12234D02*
X1080Y-12290D01*
Y-13005D02*
Y-12290D01*
Y-13005D02*
X1088Y-13012D01*
X9291Y-12165D02*
Y-12021D01*
X8366Y-11772D02*
X9042D01*
X9291Y-12021D01*
D21*
X1102Y-10039D02*
D03*
Y-10433D02*
D03*
X11770Y-16123D02*
D03*
Y-16517D02*
D03*
D22*
X9100Y-9200D02*
D03*
X9029Y-6940D02*
D03*
Y-6550D02*
D03*
X12550Y-5780D02*
D03*
X12162Y-6060D02*
D03*
X8926Y-5810D02*
D03*
X8020Y-4890D02*
D03*
X8580Y-5910D02*
D03*
X10230Y-9350D02*
D03*
X10190Y-7860D02*
D03*
X7720Y-10500D02*
D03*
X11900Y-10340D02*
D03*
X11890Y-9840D02*
D03*
X11900Y-7350D02*
D03*
X11910Y-6850D02*
D03*
X10299Y-5660D02*
D03*
X10559D02*
D03*
X12550Y-11280D02*
D03*
X5660Y-10160D02*
D03*
X12547Y-8657D02*
D03*
X10190Y-8850D02*
D03*
X12153Y-8650D02*
D03*
X9340Y-8840D02*
D03*
X8310Y-5570D02*
D03*
X9160Y-8230D02*
D03*
X3590Y-9010D02*
D03*
D23*
X9291Y-12165D02*
D03*
X9803D02*
D03*
X3342Y-13460D02*
D03*
X2830D02*
D03*
X512Y-11929D02*
D03*
X1024D02*
D03*
X8543Y-16181D02*
D03*
X8031D02*
D03*
X5827Y-4134D02*
D03*
X6339D02*
D03*
D32*
X12677Y-15472D02*
D03*
Y-15984D02*
D03*
Y-14606D02*
D03*
Y-15118D02*
D03*
D40*
X12547Y-6350D02*
D03*
X12153D02*
D03*
X10857Y-8347D02*
D03*
X10463D02*
D03*
X12547Y-7850D02*
D03*
X12153D02*
D03*
X6378Y-13898D02*
D03*
X6772D02*
D03*
X12547Y-6850D02*
D03*
X12153D02*
D03*
X12153Y-7350D02*
D03*
X12547D02*
D03*
X12547Y-9850D02*
D03*
X12153D02*
D03*
X12537Y-10347D02*
D03*
X12143D02*
D03*
X12547Y-8399D02*
D03*
X12153D02*
D03*
X12547Y-8915D02*
D03*
X12153D02*
D03*
X12547Y-9360D02*
D03*
X12153D02*
D03*
X10857Y-8843D02*
D03*
X10463D02*
D03*
X12153Y-10804D02*
D03*
X12547D02*
D03*
X10867Y-9340D02*
D03*
X10473D02*
D03*
X10857Y-7850D02*
D03*
X10463D02*
D03*
D58*
X512Y-13028D02*
Y-11929D01*
Y-11128D01*
X3738Y-3658D02*
X4190Y-4110D01*
X3738Y-3658D02*
Y-2824D01*
X4238Y-3448D02*
X4530Y-3740D01*
Y-3780D02*
Y-3740D01*
X4190Y-4110D02*
X4390D01*
X11732Y-15571D02*
X12303D01*
Y-15867D02*
Y-15571D01*
Y-15118D01*
Y-15571D02*
X12630D01*
X12685Y-15516D01*
X12090Y-16080D02*
X12303Y-15867D01*
X3238Y-3552D02*
Y-2824D01*
X7890Y-3850D02*
X8360Y-4320D01*
X7890Y-3850D02*
Y-3840D01*
X8360Y-4320D02*
X8942D01*
X8843Y-4560D02*
X9610Y-5327D01*
X7520Y-4560D02*
X8843D01*
X9610Y-9843D02*
Y-5327D01*
X8430Y-3820D02*
X8612D01*
X8642Y-3850D01*
X8642Y-3850D01*
X9970Y-5178D01*
X8926Y-6026D02*
Y-5810D01*
Y-6026D02*
X9230Y-6330D01*
X8020Y-4890D02*
X9003D01*
X8389Y-5380D02*
X8539Y-5530D01*
X9160D01*
X5149Y-5380D02*
X8389D01*
X5139Y-5370D02*
X5149Y-5380D01*
X4409Y-6099D02*
X5139Y-5370D01*
X8990Y-7740D02*
Y-7310D01*
X8895Y-7835D02*
X8990Y-7740D01*
Y-7310D02*
X9230Y-7070D01*
X8942Y-4320D02*
X9850Y-5228D01*
Y-10477D02*
Y-5228D01*
X3990Y-11400D02*
X4213Y-11623D01*
Y-12579D02*
Y-11623D01*
X11940Y-16810D02*
X12090Y-16660D01*
X8543Y-16493D02*
X8860Y-16810D01*
X11940D01*
X12090Y-16660D02*
Y-16080D01*
X10230Y-9350D02*
X10463D01*
X10473Y-9340D01*
X10200Y-7850D02*
X10463D01*
X10190Y-7860D02*
X10200Y-7850D01*
X11732Y-16004D02*
X11772Y-16043D01*
X11732Y-16004D02*
Y-15768D01*
X7954Y-9606D02*
X8366D01*
X7750Y-9810D02*
X7954Y-9606D01*
X7750Y-10470D02*
Y-9810D01*
Y-10470D02*
X7760Y-10480D01*
X7740Y-10500D02*
X7760Y-10480D01*
X7720Y-10500D02*
X7740D01*
X10690Y-14980D02*
X11732D01*
X10548Y-15458D02*
X10760Y-15670D01*
X10548Y-15458D02*
Y-15122D01*
X10690Y-14980D01*
X6772Y-14292D02*
Y-13996D01*
Y-14292D02*
X7854Y-15374D01*
X8504D01*
X5070Y-13060D02*
X6120D01*
X4450Y-13680D02*
X5070Y-13060D01*
X6120D02*
X6181Y-12999D01*
X4270Y-13680D02*
X4450D01*
X6181Y-12999D02*
Y-12579D01*
X6340Y-13240D02*
X6575Y-13005D01*
X5120Y-13240D02*
X6340D01*
X4470Y-13890D02*
X5120Y-13240D01*
X6575Y-13005D02*
Y-12579D01*
X8366Y-9213D02*
X9087D01*
X9100Y-9200D01*
X7165Y-7165D02*
X7205Y-7205D01*
X7165Y-7165D02*
Y-6634D01*
X1527Y-7210D02*
X1667Y-7350D01*
X990Y-7210D02*
X1527D01*
X457Y-6677D02*
X990Y-7210D01*
X1690Y-7350D02*
X1920Y-7580D01*
X1667Y-7350D02*
X1690D01*
X2015Y-7835D02*
X2421D01*
X1920Y-7740D02*
X2015Y-7835D01*
X1920Y-7740D02*
Y-7580D01*
X2460Y-6750D02*
X2882Y-7172D01*
X1530Y-6750D02*
X2460D01*
X1457Y-6677D02*
X1530Y-6750D01*
X2421Y-7638D02*
X2822D01*
X2882Y-7578D01*
Y-7172D01*
X1090Y-10027D02*
Y-9600D01*
Y-8610D01*
X1275Y-8425D01*
X2421D01*
X9780Y-14680D02*
Y-14470D01*
Y-14680D02*
X10020Y-14920D01*
Y-16299D02*
Y-14920D01*
X5860Y-7160D02*
X5984Y-7036D01*
Y-6634D01*
X5860Y-8060D02*
Y-7160D01*
X6070Y-10680D02*
Y-8270D01*
X5860Y-8060D02*
X6070Y-8270D01*
Y-10680D02*
X6650Y-11260D01*
X6640Y-11270D02*
X6650Y-11260D01*
X6640Y-11590D02*
Y-11270D01*
X10100Y-14520D02*
X10217Y-14637D01*
Y-16299D02*
Y-14637D01*
X7756Y-7264D02*
Y-7230D01*
Y-7264D02*
Y-6634D01*
X6470Y-8550D02*
X7756Y-7264D01*
X6470Y-10510D02*
Y-8550D01*
Y-10510D02*
X7080Y-11120D01*
Y-11460D02*
Y-11120D01*
X9570Y-14217D02*
X9829Y-13959D01*
X10270Y-13810D02*
Y-13660D01*
X10121Y-13959D02*
X10270Y-13810D01*
X9829Y-13959D02*
X10121D01*
X9570Y-15036D02*
Y-14217D01*
X9429Y-15177D02*
X9570Y-15036D01*
X8504Y-15177D02*
X9429D01*
X8366Y-8425D02*
X8825D01*
X9050Y-8650D01*
X9090Y-15383D02*
X9429Y-15722D01*
X9090Y-15383D02*
Y-15380D01*
X9429Y-16299D02*
Y-15722D01*
X7559Y-7241D02*
Y-6634D01*
X6320Y-8480D02*
X7559Y-7241D01*
X6320Y-10647D02*
Y-8480D01*
Y-10647D02*
X6851Y-11179D01*
X6840Y-11790D02*
Y-11190D01*
X6851Y-11179D01*
X7877Y-14587D02*
X8504D01*
X8110Y-13060D02*
Y-12700D01*
X7760Y-13410D02*
X8110Y-13060D01*
X7760Y-14470D02*
Y-13410D01*
Y-14470D02*
X7877Y-14587D01*
X7200Y-9020D02*
X7598Y-8622D01*
X8366D01*
X7290Y-11650D02*
Y-11362D01*
X7200Y-11272D02*
Y-9020D01*
Y-11272D02*
X7290Y-11362D01*
X7910Y-14320D02*
Y-13470D01*
X8510Y-12870D02*
Y-12700D01*
X7910Y-13470D02*
X8510Y-12870D01*
X7980Y-14390D02*
X8504D01*
X7910Y-14320D02*
X7980Y-14390D01*
X7320Y-9070D02*
X7571Y-8819D01*
X8366D01*
X7540Y-11560D02*
Y-11443D01*
Y-11560D02*
X7640Y-11660D01*
X7320Y-11223D02*
Y-9070D01*
Y-11223D02*
X7540Y-11443D01*
X9390Y-13670D02*
X9980D01*
X9232Y-13512D02*
X9390Y-13670D01*
X9232Y-13512D02*
Y-13071D01*
X9377Y-12567D02*
X9429Y-12619D01*
X8974Y-12567D02*
X9377D01*
X8906Y-12500D02*
X8974Y-12567D01*
X7835Y-12500D02*
X8906D01*
X7756Y-12579D02*
X7835Y-12500D01*
X9429Y-13071D02*
Y-12619D01*
X9016Y-12440D02*
X9490D01*
X8956Y-12380D02*
X9016Y-12440D01*
X8070Y-12380D02*
X8956D01*
X8010Y-12320D02*
X8070Y-12380D01*
X9626Y-13071D02*
Y-12576D01*
X9490Y-12440D02*
X9626Y-12576D01*
X8010Y-12320D02*
Y-12190D01*
X7940Y-12120D02*
X8010Y-12190D01*
X7630Y-12120D02*
X7940D01*
X7559Y-12579D02*
Y-12191D01*
X7630Y-12120D01*
X10079Y-12165D02*
X10079Y-12165D01*
X3228Y-13052D02*
Y-12579D01*
X3180Y-13100D02*
X3228Y-13052D01*
X2913Y-13107D02*
X2920Y-13100D01*
X2530D02*
X2920D01*
X3180D01*
X8031Y-16531D02*
Y-16181D01*
Y-16531D02*
X8050Y-16550D01*
X4920Y-15000D02*
Y-14940D01*
X5296D02*
X5354Y-14882D01*
X4920Y-14940D02*
X5296D01*
X2913Y-13465D02*
Y-13107D01*
X2421Y-8819D02*
X3859D01*
X4340Y-9300D01*
X5510D01*
X5238Y-3578D02*
X5240Y-3580D01*
X5238Y-3578D02*
Y-2824D01*
X2421Y-8622D02*
X3902D01*
X4380Y-9100D01*
X5750D01*
X4740Y-3540D02*
Y-2826D01*
X4738Y-2824D02*
X4740Y-2826D01*
X4606Y-6634D02*
Y-6142D01*
X5178Y-5570D02*
X8310D01*
X4606Y-6142D02*
X5178Y-5570D01*
X4238Y-3448D02*
Y-2824D01*
X4320Y-11280D02*
X4606Y-11566D01*
X4280Y-11280D02*
X4320D01*
X4606Y-12579D02*
Y-11566D01*
X4803Y-12579D02*
Y-11513D01*
X4290Y-11000D02*
X4803Y-11513D01*
X4409Y-6634D02*
Y-6099D01*
X3228Y-6634D02*
Y-6228D01*
X3100Y-6100D02*
X3228Y-6228D01*
X3070Y-6100D02*
X3100D01*
X3070D02*
Y-6080D01*
X3060Y-6070D02*
X3070Y-6080D01*
X3425Y-6634D02*
Y-6025D01*
X3220Y-5820D02*
X3425Y-6025D01*
X3070Y-5820D02*
X3220D01*
X512Y-11128D02*
X820Y-10820D01*
X5591Y-7251D02*
Y-6634D01*
X5162Y-7680D02*
X5591Y-7251D01*
X2620Y-6728D02*
Y-6490D01*
X3750Y-7680D02*
X5162D01*
X2620Y-6728D02*
X3102Y-7210D01*
X3280D01*
X3750Y-7680D01*
X500Y-13040D02*
X512Y-13028D01*
X4100Y-15450D02*
X4290Y-15260D01*
X820Y-10820D02*
Y-8560D01*
X1270Y-8110D01*
X1890D01*
X315Y-13225D02*
X500Y-13040D01*
X6299Y-7717D02*
X6811D01*
X6181Y-7598D02*
X6299Y-7717D01*
X6181Y-7598D02*
Y-7283D01*
X6969Y-7559D02*
Y-6634D01*
X6811Y-7717D02*
X6969Y-7559D01*
X12303Y-15118D02*
Y-14665D01*
Y-15118D02*
X12677D01*
X12224Y-14587D02*
X12303Y-14665D01*
X11732Y-14587D02*
X12224D01*
X11732D02*
X11735Y-14584D01*
X8500Y-16098D02*
Y-15772D01*
X8543Y-16493D02*
Y-16181D01*
X3425Y-13465D02*
Y-12579D01*
X10933Y-15169D02*
X11724D01*
X11732Y-15177D01*
X10748Y-15354D02*
X10933Y-15169D01*
X4173Y-7402D02*
X4858D01*
X5197Y-7063D01*
Y-6634D01*
X5079Y-7480D02*
X5394Y-7165D01*
Y-6634D01*
X4560Y-14330D02*
X5952D01*
X6122Y-14500D01*
Y-14882D02*
Y-14500D01*
X4016Y-13786D02*
X4560Y-14330D01*
X4016Y-13786D02*
Y-12579D01*
X3819Y-13759D02*
Y-12579D01*
X4510Y-14450D02*
X5726D01*
X5866Y-14590D01*
Y-14882D02*
Y-14590D01*
X3819Y-13759D02*
X4510Y-14450D01*
X9960Y-14240D02*
X10150D01*
X10413Y-14503D01*
X7362Y-12579D02*
Y-12048D01*
X10413Y-16299D02*
Y-14503D01*
X7362Y-12048D02*
X7364Y-12050D01*
X7370D01*
X9158Y-8228D02*
X9160Y-8230D01*
X8366Y-8228D02*
X9158D01*
X2421Y-9016D02*
X2427Y-9010D01*
X3590D01*
X8366Y-7835D02*
X8895D01*
X9230Y-7070D02*
Y-6330D01*
X8366Y-8031D02*
X8899D01*
X4010Y-14950D02*
X4400D01*
X3830Y-14770D02*
X4010Y-14950D01*
X2421Y-12629D02*
Y-11968D01*
X3320Y-14770D02*
X3830D01*
X3060Y-14510D02*
X3320Y-14770D01*
X2696Y-13906D02*
X2856D01*
X3060Y-14110D01*
Y-14510D02*
Y-14110D01*
X2220Y-12830D02*
X2421Y-12629D01*
X2220Y-13430D02*
Y-12830D01*
Y-13430D02*
X2696Y-13906D01*
X1770Y-11890D02*
X1888Y-11772D01*
X1770Y-12443D02*
Y-11890D01*
X1888Y-11772D02*
X2421D01*
X2100Y-14640D02*
Y-12773D01*
X1770Y-12443D02*
X2100Y-12773D01*
X1400Y-12370D02*
Y-9600D01*
X1591Y-9409D02*
X2421D01*
X1400Y-9600D02*
X1591Y-9409D01*
X1980Y-14730D02*
Y-12950D01*
X1400Y-12370D02*
X1980Y-12950D01*
X3622Y-13731D02*
Y-12579D01*
Y-13731D02*
X4551Y-14660D01*
X4950D01*
X6772Y-12579D02*
Y-12110D01*
X3243Y-10080D02*
X3253Y-10070D01*
X2950Y-9960D02*
X3070Y-10080D01*
X3243D01*
X1950Y-6410D02*
Y-4500D01*
X2950Y-9960D02*
Y-9680D01*
X6969Y-12579D02*
Y-12189D01*
X3253Y-10070D02*
X3950D01*
X5790Y-11910D01*
X6350D01*
X6900Y-12120D02*
X6969Y-12189D01*
X6560Y-12120D02*
X6900D01*
X6350Y-11910D02*
X6560Y-12120D01*
X1238Y-4038D02*
Y-2793D01*
X1962Y-11378D02*
X2421D01*
X1890Y-11450D02*
X1962Y-11378D01*
X1890Y-11575D02*
Y-11450D01*
Y-11575D02*
X2421D01*
X1735D02*
X1890D01*
X1730Y-11570D02*
X1735Y-11575D01*
X2238Y-3452D02*
Y-2793D01*
X2070Y-3620D02*
X2238Y-3452D01*
X2070Y-4030D02*
Y-3620D01*
X1700Y-11190D02*
X1709Y-11181D01*
X1999Y-10591D02*
X2421D01*
X1930Y-10660D02*
X1999Y-10591D01*
X1930Y-11181D02*
Y-10660D01*
X1709Y-11181D02*
X1930D01*
X2421D01*
X2738Y-3982D02*
Y-2824D01*
X5197Y-12579D02*
Y-11930D01*
X5320D01*
X5394Y-12004D01*
Y-12579D02*
Y-12004D01*
X2950Y-10670D02*
X4290D01*
X5197Y-11577D01*
Y-11930D02*
Y-11577D01*
X3170Y-3990D02*
Y-3620D01*
X3238Y-3552D01*
X7970Y-11378D02*
X8366D01*
X7830Y-11238D02*
X7842Y-11226D01*
Y-11126D01*
X7830Y-11238D02*
X7970Y-11378D01*
X8366Y-11181D02*
X9021D01*
X7634Y-9016D02*
X8366D01*
X7840Y-11743D02*
Y-11577D01*
X3160Y-9880D02*
X3970D01*
X5880Y-11790D01*
X6420D01*
X7660Y-11397D02*
X7840Y-11577D01*
X7660Y-11397D02*
Y-11393D01*
X7460Y-9190D02*
X7634Y-9016D01*
X6420Y-11790D02*
X6620Y-11990D01*
X7723Y-11860D02*
X7840Y-11743D01*
X7557Y-11860D02*
X7723D01*
X7537Y-11840D02*
X7557Y-11860D01*
X7383Y-11840D02*
X7537D01*
X7373Y-11850D02*
X7383Y-11840D01*
X7460Y-11193D02*
Y-9190D01*
Y-11193D02*
X7660Y-11393D01*
X6933Y-11990D02*
X7073Y-11850D01*
X7373D01*
X6620Y-11990D02*
X6933D01*
X10857Y-8347D02*
Y-7850D01*
X10867Y-9340D02*
Y-8853D01*
X10857Y-8843D02*
X10867Y-8853D01*
X6238Y-1788D02*
Y-1493D01*
Y-1788D02*
X6670Y-2220D01*
X8366Y-10787D02*
X9540D01*
X9850Y-10477D01*
X5738Y-1748D02*
Y-1493D01*
Y-1748D02*
X6210Y-2220D01*
X9540Y-10984D02*
X9970Y-10554D01*
Y-5178D01*
X9104Y-10981D02*
X9107Y-10984D01*
X9540D01*
X8366D02*
X8369Y-10981D01*
X9104D01*
X6238Y-3278D02*
Y-2824D01*
Y-3278D02*
X7520Y-4560D01*
X8366Y-10394D02*
X8881D01*
X8887Y-10400D01*
X9053D01*
X9610Y-9843D01*
X6738Y-3478D02*
X7700Y-4440D01*
X6738Y-3478D02*
Y-2824D01*
X8366Y-10591D02*
X9540D01*
X9730Y-10401D01*
X7700Y-4440D02*
X8892D01*
X9730Y-5278D01*
Y-10401D02*
Y-5278D01*
X315Y-14895D02*
Y-13225D01*
Y-14895D02*
X870Y-15450D01*
X3420Y-15040D02*
X3440D01*
X870Y-15450D02*
X4100D01*
X1980Y-14730D02*
X2220Y-14970D01*
X2920D01*
X3200Y-15250D01*
X3890D01*
X2100Y-14640D02*
X2260Y-14800D01*
X3180D01*
X3420Y-15040D01*
X8899Y-8031D02*
X9350Y-7580D01*
Y-5960D01*
X9003Y-4890D02*
X9400Y-5287D01*
X9350Y-5960D02*
X9400Y-5910D01*
Y-5287D01*
D61*
X5738Y-3548D02*
Y-2348D01*
X7238Y-3378D02*
Y-2282D01*
X7738Y-3512D02*
Y-2288D01*
X9738Y-3362D02*
Y-2268D01*
X9730Y-3370D02*
X9738Y-3362D01*
X9730Y-2260D02*
X9738Y-2268D01*
X7238Y-2282D02*
X7240Y-2280D01*
X7730Y-3520D02*
X8160D01*
X7380D02*
X7730D01*
X7738Y-3512D01*
X8238Y-3442D02*
Y-2824D01*
X8160Y-3520D02*
X8238Y-3442D01*
X7238Y-3378D02*
X7380Y-3520D01*
X5740Y-3740D02*
X5827Y-3827D01*
Y-4134D02*
Y-3827D01*
X5740Y-3740D02*
X5750Y-3730D01*
Y-3390D01*
X5738Y-3548D02*
X5750Y-3536D01*
Y-3390D01*
X5238Y-1848D02*
X5738Y-2348D01*
X5238Y-1848D02*
Y-1493D01*
D62*
X7738D02*
D03*
X1238D02*
D03*
X1738D02*
D03*
X2238D02*
D03*
X2738D02*
D03*
X3238D02*
D03*
X3738D02*
D03*
X4238D02*
D03*
X4738D02*
D03*
X5238D02*
D03*
X5738D02*
D03*
X6238D02*
D03*
X6738D02*
D03*
X7238D02*
D03*
X9238D02*
D03*
X8738D02*
D03*
X8238D02*
D03*
X9738D02*
D03*
D63*
X1457Y-7677D02*
D03*
X457D02*
D03*
X1457Y-6677D02*
D03*
X457D02*
D03*
D64*
X3543Y-14291D02*
D03*
X2543D02*
D03*
D65*
X1181Y-14173D02*
D03*
D66*
X11480Y-3810D02*
D03*
X11460Y-790D02*
D03*
X12200Y-780D02*
D03*
X12751Y-389D02*
D03*
X4530Y-3780D02*
D03*
X4390Y-4110D02*
D03*
X12303Y-15571D02*
D03*
X12330Y-16260D02*
D03*
X3670Y-4440D02*
D03*
X8430Y-3820D02*
D03*
X7890Y-3840D02*
D03*
X9160Y-5530D02*
D03*
X10760Y-15670D02*
D03*
X11147Y-6713D02*
D03*
X10867D02*
D03*
X4270Y-13680D02*
D03*
X4470Y-13890D02*
D03*
X7205Y-7205D02*
D03*
X4646Y-8819D02*
D03*
X6614Y-4016D02*
D03*
X8440Y-12180D02*
D03*
X7870Y-14920D02*
D03*
X5220Y-13580D02*
D03*
X11086Y-15374D02*
D03*
X8550Y-13220D02*
D03*
X8990Y-12160D02*
D03*
X6575Y-6105D02*
D03*
X5000D02*
D03*
X4016D02*
D03*
X7874Y-7638D02*
D03*
X1276Y-5236D02*
D03*
X502Y-10082D02*
D03*
X2710Y-12580D02*
D03*
X3330Y-11890D02*
D03*
X2250Y-7000D02*
D03*
X5050Y-15490D02*
D03*
X9606Y-15551D02*
D03*
X11102Y-14331D02*
D03*
X7810Y-9240D02*
D03*
X5050Y-10590D02*
D03*
X1090Y-9600D02*
D03*
X9780Y-14470D02*
D03*
X6640Y-11590D02*
D03*
X10100Y-14520D02*
D03*
X7080Y-11460D02*
D03*
X10270Y-13660D02*
D03*
X9050Y-8650D02*
D03*
X9090Y-15380D02*
D03*
X6840Y-11790D02*
D03*
X8110Y-12700D02*
D03*
X7290Y-11650D02*
D03*
X8510Y-12700D02*
D03*
X7640Y-11660D02*
D03*
X9980Y-13670D02*
D03*
X9260Y-11600D02*
D03*
X1750Y-7150D02*
D03*
X10520Y-460D02*
D03*
X7130Y-470D02*
D03*
X9730Y-3370D02*
D03*
Y-2260D02*
D03*
X7240Y-2280D02*
D03*
X7738Y-2288D02*
D03*
X8160Y-3520D02*
D03*
X6693Y-10000D02*
D03*
X6614Y-7244D02*
D03*
X551Y-827D02*
D03*
X1100Y-10900D02*
D03*
X2606Y-15197D02*
D03*
X1031Y-15157D02*
D03*
X6120Y-13500D02*
D03*
X9090Y-15670D02*
D03*
X8850Y-16300D02*
D03*
X9240Y-13960D02*
D03*
X8040Y-6830D02*
D03*
X3090Y-4620D02*
D03*
X1560Y-3630D02*
D03*
X2530Y-13100D02*
D03*
X3228Y-7522D02*
D03*
X3819Y-7431D02*
D03*
X5079Y-8569D02*
D03*
X3031Y-11092D02*
D03*
X4296Y-13386D02*
D03*
X7299Y-15409D02*
D03*
X8031Y-16501D02*
D03*
X1710Y-6200D02*
D03*
X4800Y-7140D02*
D03*
X4920Y-14940D02*
D03*
X5860Y-15480D02*
D03*
X1088Y-13012D02*
D03*
X10079Y-12165D02*
D03*
X10748Y-14449D02*
D03*
X5750Y-3390D02*
D03*
X5450Y-460D02*
D03*
X3240D02*
D03*
X1620Y-450D02*
D03*
X11440Y-16610D02*
D03*
X620Y-3885D02*
D03*
X950Y-4950D02*
D03*
X12660Y-14360D02*
D03*
X7087Y-8740D02*
D03*
X5510Y-9300D02*
D03*
X5240Y-3580D02*
D03*
X5750Y-9100D02*
D03*
X4740Y-3540D02*
D03*
X4280Y-11280D02*
D03*
X4290Y-11000D02*
D03*
X3070Y-6100D02*
D03*
Y-5820D02*
D03*
X1890Y-8110D02*
D03*
X2620Y-6490D02*
D03*
X500Y-13040D02*
D03*
X4290Y-15260D02*
D03*
X6181Y-7283D02*
D03*
X10748Y-15354D02*
D03*
X4173Y-7402D02*
D03*
X5079Y-7480D02*
D03*
X3990Y-11400D02*
D03*
X9960Y-14240D02*
D03*
X7370Y-12050D02*
D03*
X4400Y-14950D02*
D03*
X3440Y-15040D02*
D03*
X3890Y-15250D02*
D03*
X4950Y-14660D02*
D03*
X1950Y-6510D02*
D03*
Y-4500D02*
D03*
X2950Y-9680D02*
D03*
X1238Y-4038D02*
D03*
X1730Y-11570D02*
D03*
X2070Y-4030D02*
D03*
X1709Y-11181D02*
D03*
X2720Y-4000D02*
D03*
X2950Y-10670D02*
D03*
X3170Y-3990D02*
D03*
X7842Y-11126D02*
D03*
X9021Y-11181D02*
D03*
X3160Y-9880D02*
D03*
X6670Y-2220D02*
D03*
X6210D02*
D03*
D67*
X8415Y-13602D02*
D03*
Y-13799D02*
D03*
Y-13996D02*
D03*
Y-14193D02*
D03*
Y-14390D02*
D03*
Y-14587D02*
D03*
Y-14783D02*
D03*
Y-14980D02*
D03*
Y-15177D02*
D03*
Y-15374D02*
D03*
Y-15571D02*
D03*
Y-15768D02*
D03*
X11821D02*
D03*
Y-15571D02*
D03*
Y-15374D02*
D03*
Y-15177D02*
D03*
Y-14980D02*
D03*
Y-14783D02*
D03*
Y-14587D02*
D03*
Y-14390D02*
D03*
Y-14193D02*
D03*
Y-13996D02*
D03*
Y-13799D02*
D03*
Y-13602D02*
D03*
D68*
X9035Y-16388D02*
D03*
X9232D02*
D03*
X9429D02*
D03*
X9626D02*
D03*
X9823D02*
D03*
X10020D02*
D03*
X10217D02*
D03*
X10413D02*
D03*
X10610D02*
D03*
X10807D02*
D03*
X11004D02*
D03*
X11201D02*
D03*
Y-12982D02*
D03*
X11004D02*
D03*
X10807D02*
D03*
X10610D02*
D03*
X10413D02*
D03*
X10217D02*
D03*
X10020D02*
D03*
X9823D02*
D03*
X9626D02*
D03*
X9429D02*
D03*
X9232D02*
D03*
X9035D02*
D03*
D69*
X1238Y-2824D02*
D03*
X1738D02*
D03*
X2238D02*
D03*
X2738D02*
D03*
X3238D02*
D03*
X3738D02*
D03*
X4238D02*
D03*
X4738D02*
D03*
X5238D02*
D03*
X5738D02*
D03*
X6238D02*
D03*
X6738D02*
D03*
X7238D02*
D03*
X7738D02*
D03*
X9738D02*
D03*
X9238D02*
D03*
X8738D02*
D03*
X8238D02*
D03*
D70*
X2421Y-7244D02*
D03*
Y-7441D02*
D03*
Y-7638D02*
D03*
Y-7835D02*
D03*
Y-8031D02*
D03*
Y-8228D02*
D03*
Y-8425D02*
D03*
Y-8622D02*
D03*
Y-8819D02*
D03*
Y-9016D02*
D03*
Y-9213D02*
D03*
Y-9409D02*
D03*
Y-9606D02*
D03*
Y-9803D02*
D03*
Y-10000D02*
D03*
Y-10197D02*
D03*
Y-10394D02*
D03*
Y-10591D02*
D03*
Y-10787D02*
D03*
Y-10984D02*
D03*
Y-11181D02*
D03*
Y-11378D02*
D03*
Y-11575D02*
D03*
Y-11772D02*
D03*
Y-11968D02*
D03*
X8366D02*
D03*
Y-11772D02*
D03*
Y-11575D02*
D03*
Y-11378D02*
D03*
Y-11181D02*
D03*
Y-10197D02*
D03*
Y-10000D02*
D03*
Y-9803D02*
D03*
Y-9606D02*
D03*
Y-9409D02*
D03*
Y-9213D02*
D03*
Y-9016D02*
D03*
Y-8819D02*
D03*
Y-8622D02*
D03*
Y-8425D02*
D03*
Y-8228D02*
D03*
Y-8031D02*
D03*
Y-7835D02*
D03*
Y-7638D02*
D03*
Y-7441D02*
D03*
Y-7244D02*
D03*
Y-10394D02*
D03*
Y-10787D02*
D03*
Y-10984D02*
D03*
Y-10591D02*
D03*
D71*
X3031Y-12579D02*
D03*
X3228D02*
D03*
X3425D02*
D03*
X3622D02*
D03*
X3819D02*
D03*
X4016D02*
D03*
X4213D02*
D03*
X4409D02*
D03*
X4606D02*
D03*
X4803D02*
D03*
X5000D02*
D03*
X5197D02*
D03*
X5394D02*
D03*
X5591D02*
D03*
X5787D02*
D03*
X5984D02*
D03*
X6181D02*
D03*
X6378D02*
D03*
X6575D02*
D03*
X6772D02*
D03*
X6969D02*
D03*
X7165D02*
D03*
X7362D02*
D03*
X7559D02*
D03*
X7756D02*
D03*
Y-6634D02*
D03*
X7559D02*
D03*
X7362D02*
D03*
X7165D02*
D03*
X6969D02*
D03*
X6772D02*
D03*
X6575D02*
D03*
X6378D02*
D03*
X6181D02*
D03*
X5984D02*
D03*
X5787D02*
D03*
X5591D02*
D03*
X5394D02*
D03*
X5197D02*
D03*
X5000D02*
D03*
X4803D02*
D03*
X4606D02*
D03*
X4409D02*
D03*
X4213D02*
D03*
X4016D02*
D03*
X3819D02*
D03*
X3622D02*
D03*
X3425D02*
D03*
X3228D02*
D03*
X3031D02*
D03*
D72*
X5463Y-16004D02*
D03*
X6270D02*
D03*
D73*
X4488D02*
D03*
X7244D02*
D03*
D74*
X5354Y-14882D02*
D03*
X5610D02*
D03*
X5866D02*
D03*
X6122D02*
D03*
X6378D02*
D03*
M02*
